<svg xmlns="http://www.w3.org/2000/svg" xml:space="preserve" id="Layer_1" x="0" y="0" version="1.1"
     viewBox="0 0 630 146.2">
    <style>
        .st1 {
            fill: #32c5f4
        }

        .st2 {
            fill: #ed2124
        }

        .st3 {
            fill: #9dcd5e
        }
    </style>
    <path fill="#000e3c" d="M0 0h630v146.2H0z" />
    <path d="M172.6 30.7v22.7c0 .4.1.6.2.8.1.2.4.3.8.3h25.1v8.4h-32.9c-.9 0-1.5-.2-1.8-.6-.4-.4-.5-1-.5-1.8V30.7h9.1m0-2h-9.1c-1.1 0-2 .9-2 2v29.6c0 1.3.3 2.3 1 3.1.7.9 1.9 1.4 3.3 1.4h32.9c1.1 0 2-.9 2-2v-8.4c0-1.1-.9-2-2-2h-24.2V30.7c.1-1.1-.8-2-1.9-2M285.7 30.7v30.8c0 .9-.4 1.3-1.2 1.3h-13c-.6 0-1.1-.1-1.4-.3-.3-.2-.6-.5-.9-1l-12.6-23c-.2-.4-.5-.5-.8-.5h-.4c-.5 0-.7.2-.7.7v24.1h-8.2V32.1c0-.9.4-1.3 1.2-1.3H261c.7 0 1.2.1 1.4.3.3.2.5.5.8 1l12.2 23.1c.2.4.5.5.8.5h.5c.5 0 .7-.2.7-.7V30.7h8.3m0-2h-8.2c-1.1 0-2 .9-2 2v20.1L265 31.1c-.4-.7-.8-1.3-1.4-1.6-.6-.5-1.5-.7-2.6-.7h-13.5c-1.9 0-3.2 1.3-3.2 3.3v30.8c0 1.1.9 2 2 2h8.2c1.1 0 2-.9 2-2V42.7l10.8 19.8c.4.8 1 1.4 1.6 1.8.6.4 1.4.5 2.4.5h13c1.9 0 3.2-1.3 3.2-3.3V30.7c.2-1.1-.7-2-1.8-2M361.1 62.8H352V30.7h9.1v32.1zm0-34.1H352c-1.1 0-2 .9-2 2v32.1c0 1.1.9 2 2 2h9.1c1.1 0 2-.9 2-2V30.7c0-1.1-.9-2-2-2M405 30.7c.9 0 1.4.5 1.4 1.4v6.6l-8.4 3.1h-.4v-3.5c0-.4-.2-.5-.5-.5h-16.9c-.6 0-1 .1-1.3.4-.2.3-.4.6-.4 1.1v.8c0 .6.1 1 .3 1.2.2.2.6.3 1.2.4l19.9 2.8c1.3.2 2.3.4 3.2.8.9.4 1.6.9 2.2 1.5.6.6 1 1.3 1.2 2.2.2.9.4 1.9.4 3.1v2.6c0 1.3-.2 2.5-.5 3.5s-.9 1.9-1.6 2.6c-.7.7-1.7 1.2-2.9 1.6-1.2.4-2.7.5-4.5.5h-28.6v-8.3h25.6c.8 0 1.3-.1 1.5-.4.2-.3.4-.8.4-1.5v-.9c0-.6-.1-.9-.3-1.2s-.6-.4-1.1-.4l-19.2-2.4c-1.3-.2-2.4-.4-3.3-.8-.9-.4-1.7-.8-2.3-1.4-.6-.6-1-1.3-1.3-2.2-.3-.9-.4-1.9-.4-3v-2.2c0-2.3.6-4.1 1.9-5.4 1.2-1.3 3.3-1.9 6.2-1.9H405m0-2.2h-28.5c-3.4 0-6 .8-7.6 2.5-1.6 1.7-2.4 3.9-2.4 6.8v2.2c0 1.4.2 2.6.5 3.6.4 1.2 1 2.2 1.8 3 .8.8 1.8 1.4 3 1.9 1.1.4 2.3.7 3.8.9l18.9 2.4v.4H369c-1.1 0-2 .9-2 2v8.3c0 1.1.9 2 2 2h28.6c2 0 3.6-.2 5-.6 1.5-.4 2.8-1.1 3.7-2 1-.9 1.7-2.1 2.1-3.4.4-1.2.6-2.6.6-4.1V52c0-1.4-.1-2.6-.4-3.6-.3-1.2-.9-2.2-1.7-3.1-.8-.8-1.7-1.5-2.9-1.9-.7-.3-1.6-.6-2.5-.7l5.7-2.1c.8-.3 1.3-1 1.3-1.9v-6.6c-.2-2-1.5-3.4-3.5-3.4m-24.3 11.1h14.9v2.1l-14.9-2.1zM422.6 30.7v22.7c0 .4.1.6.2.8.1.2.4.3.8.3h25.1v8.4h-32.9c-.9 0-1.5-.2-1.8-.6-.4-.4-.5-1-.5-1.8V30.7h9.1m0-2h-9.1c-1.1 0-2 .9-2 2v29.6c0 1.3.3 2.3 1 3.1.7.9 1.9 1.4 3.3 1.4h32.9c1.1 0 2-.9 2-2v-8.4c0-1.1-.9-2-2-2h-24.2V30.7c.1-1.1-.8-2-1.9-2M482.7 30.7c.5 0 .9.1 1.1.2.2.1.4.4.7.8l16 30.7v.4H473l-2.6-7V55H483.6c.5 0 1 0 1.4.1.4 0 .8.1 1.2.1l.1-.3-.6-.9c-.2-.3-.4-.7-.6-1.1l-.8-1.6c-.3-.6-.7-1.4-1.2-2.3L478 38.7c-.1-.2-.3-.3-.6-.3h-.5c-.3 0-.5.1-.6.3l-11.9 24.1h-10.5v-.4L470 31.7c.2-.4.4-.7.6-.8.2-.1.6-.2 1.1-.2h11m0-2h-11.1c-.9 0-1.7.2-2.2.6-.5.3-.9.9-1.2 1.6l-16.1 30.6c-.2.3-.2.6-.2.9v.4c0 1.1.9 2 2 2h10.5c.8 0 1.5-.4 1.8-1.1L469 58l2.1 5.5c.3.8 1 1.3 1.9 1.3h27.5c1.1 0 2-.9 2-2v-.4c0-.3-.1-.6-.2-.9l-16-30.7v-.1c-.4-.7-.8-1.2-1.3-1.5-.7-.3-1.4-.5-2.3-.5M471.5 53l5.7-11.5 4.1 8.3c.5 1 .9 1.7 1.2 2.4.2.3.3.6.5.9h-11.5zM545.2 30.7v30.8c0 .9-.4 1.3-1.2 1.3h-13c-.6 0-1.1-.1-1.4-.3-.3-.2-.6-.5-.9-1l-12.6-23c-.2-.4-.5-.5-.8-.5h-.4c-.5 0-.7.2-.7.7v24.1H506V32.1c0-.9.4-1.3 1.2-1.3h13.5c.7 0 1.2.1 1.4.3.3.2.5.5.8 1l12.1 23c.2.4.5.5.8.5h.5c.5 0 .7-.2.7-.7V30.7h8.2m0-2H537c-1.1 0-2 .9-2 2v20.1L524.6 31c-.4-.7-.8-1.3-1.4-1.6-.6-.5-1.5-.7-2.6-.7h-13.5c-1.9 0-3.2 1.3-3.2 3.3v30.8c0 1.1.9 2 2 2h8.2c1.1 0 2-.9 2-2V42.7L527 62.5c.4.8 1 1.4 1.6 1.8.6.4 1.4.5 2.4.5h13c1.9 0 3.2-1.3 3.2-3.3V30.7c0-1.1-.9-2-2-2M577.5 30.7c2.4 0 4.4.3 6.1.9 1.7.6 3 1.5 4.1 2.6 1 1.1 1.8 2.4 2.2 4 .5 1.6.7 3.3.7 5.3v6.6c0 1.9-.2 3.7-.7 5.3-.5 1.6-1.2 2.9-2.2 4-1 1.1-2.4 2-4.1 2.6-1.7.6-3.7.9-6.1.9h-13l-2.9-7.5h-.4v7.5h-9.1V32.1c0-.9.4-1.3 1.2-1.3h24.2m-16.2 23.7h15.4c1.7 0 3-.4 3.7-1.1.7-.8 1.1-2.1 1.1-4.1v-5.4c0-2-.4-3.4-1.1-4.1-.7-.7-2-1.1-3.7-1.1H562c-.2 0-.4.1-.5.2-.1.1-.2.3-.2.5v15.1m16.2-25.8h-24.1c-1.9 0-3.2 1.3-3.2 3.3v30.8c0 1.1.9 2 2 2h9.1c.7 0 1.3-.3 1.6-.8.4.5 1 .8 1.6.8h13c2.6 0 4.9-.3 6.8-1 2-.7 3.6-1.7 4.8-3.1 1.2-1.3 2.1-2.9 2.7-4.8.5-1.8.8-3.7.8-5.8v-6.6c0-2.1-.3-4.1-.8-5.8-.6-1.9-1.5-3.5-2.7-4.8-1.2-1.3-2.9-2.4-4.8-3.1-2-.7-4.2-1.1-6.8-1.1m-14.2 12.1h13.4c1.7 0 2.2.4 2.3.5 0 0 .5.5.5 2.6v5.4c0 2-.5 2.6-.5 2.7-.2.2-.7.5-2.3.5h-13.4V40.8zM329.5 30.7c.9 0 1.3.4 1.3 1.3v7l-8.4 3.1h-.5V39c0-.3-.1-.4-.4-.4h-15.3c-.9 0-1.6.1-2.2.2-.6.2-1.1.4-1.5.8-.4.4-.7.9-.8 1.6-.2.7-.3 1.5-.3 2.4v5.6c0 1.9.4 3.3 1.1 4.1.7.8 2 1.1 3.7 1.1h15.1c.3 0 .5-.2.5-.5v-2.3H316l-2.6-7v-.9h11c2.1 0 4.2 0 6.3.2v17.6c0 .8-.4 1.2-1.1 1.2H305.3c-2.4 0-4.4-.3-6.1-.9-1.7-.6-3-1.5-4.1-2.6-1-1.1-1.8-2.4-2.2-4-.5-1.6-.7-3.3-.7-5.3v-6.6c0-1.9.2-3.7.7-5.3.5-1.6 1.2-2.9 2.2-4 1-1.1 2.4-2 4.1-2.6 1.7-.6 3.7-.9 6.1-.9H329.5v.2m0-2h-24.1c-2.6 0-4.9.3-6.8 1-2 .7-3.6 1.7-4.8 3.1-1.2 1.3-2.1 2.9-2.7 4.8-.5 1.8-.8 3.7-.8 5.8V50c0 2.1.3 4.1.8 5.8.6 1.9 1.5 3.5 2.7 4.8 1.2 1.3 2.9 2.4 4.8 3.1 1.9.7 4.2 1 6.8 1H329.7c1.9 0 3.1-1.3 3.1-3.2V43.9c0-1-.8-1.9-1.8-2-.8-.1-1.5-.1-2.3-.1l2.8-1c.8-.3 1.3-1 1.3-1.9V32c-.1-1.9-1.4-3.3-3.3-3.3m-15.3 23.8h-8c-1.6 0-2.1-.4-2.3-.5-.1-.1-.5-.7-.5-2.7v-5.6c0-.8.1-1.4.2-1.9.1-.3.2-.6.3-.7.1-.1.3-.2.6-.3.4-.1 1-.2 1.7-.2h13.7v1.3h-6.5c-1.1 0-2 .9-2 2v.9c0 .2 0 .5.1.7l2.6 7c.1-.1.1 0 .1 0"
          class="st1" />
    <path d="M176.8 79.2v27.2c0 .4.1.7.3 1 .2.2.5.3 1 .3h30.1v10h-39.5c-1 0-1.7-.3-2.2-.8-.4-.5-.6-1.2-.6-2.2V79.2h10.9m0-2h-10.9c-1.1 0-2 .9-2 2v35.5c0 1.4.4 2.6 1.1 3.5.8 1 2.1 1.5 3.7 1.5h39.5c1.1 0 2-.9 2-2v-10c0-1.1-.9-2-2-2h-29.4V79.2c0-1.1-.9-2-2-2M250.4 79.2c.6 0 1 .1 1.3.3.3.2.5.5.8 1l19.1 36.8v.4h-32.9l-3.2-8.4v-1.1H251.4c.6 0 1.2 0 1.7.1.5 0 1 .1 1.4.1l.2-.4c-.2-.4-.4-.8-.7-1.1-.2-.4-.5-.8-.8-1.3-.3-.5-.6-1.2-1-1.9s-.9-1.7-1.4-2.8l-6.1-12.2c-.1-.2-.4-.4-.7-.4h-.6c-.3 0-.5.1-.7.4l-14.3 28.9h-12.6v-.4l19.3-36.8c.2-.5.5-.8.7-1 .2-.2.7-.3 1.3-.3h13.3m0-1.9h-13.3c-1.1 0-1.8.2-2.4.6-.5.4-1 .9-1.4 1.7L214 116.3c-.2.3-.2.6-.2.9v.4c0 1.1.9 2 2 2h12.6c.8 0 1.5-.4 1.8-1.1l3.8-7.6 2.8 7.5c.3.8 1 1.3 1.9 1.3h32.9c1.1 0 2-.9 2-2v-.4c0-.3-.1-.6-.2-.9l-19.1-36.8v-.1c-.5-.8-.9-1.3-1.4-1.7-.7-.4-1.5-.6-2.5-.6m-14.1 29.1 7.5-15 5.3 10.6c.6 1.1 1.1 2.1 1.4 2.8.3.6.6 1.2.9 1.6h-15.1zM321.7 79.2c1.1 0 1.6.6 1.6 1.7v7.9l-10.1 3.7h-.4v-4.2c0-.4-.2-.6-.6-.6h-20.3c-.7 0-1.3.2-1.5.5-.3.3-.4.8-.4 1.4v1c0 .7.1 1.2.4 1.4.2.2.7.4 1.4.5l23.9 3.3c1.5.2 2.8.5 3.9 1 1.1.4 1.9 1 2.6 1.7.7.7 1.1 1.6 1.4 2.7.3 1.1.4 2.3.4 3.8v3.1c0 1.6-.2 3-.6 4.2-.4 1.2-1 2.2-1.9 3.1-.9.8-2 1.5-3.5 1.9-1.4.4-3.2.6-5.3.6h-34.3v-10h30.7c.9 0 1.5-.2 1.8-.5.3-.3.4-.9.4-1.8v-1.1c0-.7-.1-1.1-.3-1.4-.2-.3-.7-.4-1.3-.5l-23.1-2.9c-1.6-.2-2.9-.5-4-1-1.1-.4-2-1-2.7-1.7-.7-.7-1.2-1.6-1.5-2.6-.3-1-.5-2.2-.5-3.6V88c0-2.8.7-4.9 2.2-6.5 1.5-1.5 3.9-2.3 7.4-2.3h34.2m0-2h-34.2c-4 0-7 1-8.9 2.9-1.8 1.9-2.8 4.6-2.8 7.9v2.7c0 1.6.2 3 .6 4.2.4 1.3 1.1 2.5 2 3.4.9.9 2.1 1.6 3.4 2.1 1.2.5 2.7.8 4.4 1.1l23 2.9v1.3h-31c-1.1 0-2 .9-2 2v10c0 1.1.9 2 2 2h34.3c2.3 0 4.3-.2 5.9-.7 1.7-.5 3.2-1.3 4.3-2.3 1.1-1.1 2-2.4 2.4-3.9.4-1.4.7-3 .7-4.8v-3.1c0-1.6-.2-3-.5-4.3-.4-1.4-1-2.6-1.9-3.5-.9-.9-2-1.7-3.3-2.2-1.2-.5-2.7-.9-4.4-1.1l8.1-3c.8-.3 1.3-1 1.3-1.9V81c.3-2.4-1.1-3.8-3.4-3.8M292 89.7h18.9v2.8c0 .2 0 .3.1.5l-19-2.6h-.1v-.7zM374.5 79.2c1.1 0 1.6.5 1.6 1.6v10L366 94.5h-.4v-5.1c0-.4-.2-.6-.5-.6h-21.8c-.3 0-.5.1-.6.2-.1.2-.1.3-.1.5v4.8h18v7.8h-15.1l-2.5-6.8h-.4V107c0 .5.2.7.7.7h32.5v10h-42.6c-1 0-1.5-.5-1.5-1.6V80.8c0-1.1.5-1.6 1.5-1.6h41.3m0-2h-41.3c-2.1 0-3.5 1.4-3.5 3.6v35.3c0 2.2 1.4 3.6 3.5 3.6h42.6c1.1 0 2-.9 2-2v-10c0-1.1-.9-2-2-2h-31.2V104c.3.1.6.2.9.2h15.1c1.1 0 2-.9 2-2v-7.8c0-1.1-.9-2-2-2h-16v-1.5h19v3.7c0 1.1.9 2 2 2h.4c.2 0 .5 0 .7-.1l10.1-3.8c.8-.3 1.3-1 1.3-1.9v-10c0-2.2-1.5-3.6-3.6-3.6M490.1 79.2c1 0 1.5.5 1.5 1.6v10l-10.1 3.8h-.4v-5.1c0-.4-.2-.6-.6-.6h-11.1v28.9h-10.9v-29h-16l-3.5-9.2v-.4h51.1m0-2h-51c-1.1 0-2 .9-2 2v.4c0 .2 0 .5.1.7l3.5 9.2c.3.8 1 1.3 1.9 1.3h14v26.9c0 1.1.9 2 2 2h10.9c1.1 0 2-.9 2-2V90.8h7.6v3.7c0 1.1.9 2 2 2h.4c.2 0 .5 0 .7-.1l10.1-3.8c.8-.3 1.3-1 1.3-1.9v-10c.1-2.1-1.3-3.5-3.5-3.5M520.6 79.2c.6 0 1 .1 1.3.3.3.2.5.5.8 1l19.1 36.8v.4h-32.9l-3.2-8.4v-1.1H521.6c.6 0 1.2 0 1.7.1.5 0 1 .1 1.4.1l.2-.4c-.2-.4-.4-.8-.7-1.1-.2-.4-.5-.8-.8-1.3-.3-.5-.6-1.2-1-1.9s-.9-1.7-1.4-2.8l-6-12.1c-.1-.2-.4-.4-.7-.4h-.6c-.3 0-.5.1-.7.4l-14.3 28.9H486v-.4l19.3-36.8c.2-.5.5-.8.7-1 .2-.2.7-.3 1.3-.3h13.3m0-2h-13.3c-1.1 0-1.8.2-2.4.6-.5.4-1 .9-1.4 1.7l-19.3 36.8c-.2.3-.2.6-.2.9v.4c0 1.1.9 2 2 2h12.6c.8 0 1.5-.4 1.8-1.1l3.8-7.6 2.8 7.5c.3.8 1 1.3 1.9 1.3h32.9c1.1 0 2-.9 2-2v-.4c0-.3-.1-.6-.2-.9l-19.1-36.8v-.1c-.5-.8-.9-1.3-1.4-1.7-.7-.4-1.5-.6-2.5-.6m-14.1 29.1 7.5-15 5.3 10.6c.6 1.1 1.1 2.1 1.4 2.8.3.6.6 1.2.9 1.6h-15.1zM589 79.2c1 0 1.5.5 1.5 1.6v8.3l-10.1 3.7h-.5v-3.7c0-.4-.2-.5-.5-.5h-18.3c-1.1 0-1.9.1-2.7.3-.7.2-1.3.5-1.8 1s-.8 1.1-1 1.9-.3 1.8-.3 2.9v6.8c0 2.3.4 3.9 1.3 4.9.9.9 2.4 1.4 4.4 1.4h18.2c.4 0 .6-.2.6-.6v-2.7h-7l-3.2-8.4V95H582.8c2.5 0 5.1 0 7.6.2l-.1 9.2v11.9c0 1-.4 1.5-1.3 1.5h-29.1c-2.9 0-5.3-.4-7.3-1.1-2-.7-3.6-1.7-4.9-3.1-1.2-1.3-2.1-2.9-2.7-4.8-.6-1.9-.8-4-.8-6.3v-7.9c0-2.3.3-4.4.8-6.3.6-1.9 1.5-3.5 2.7-4.8 1.2-1.3 2.9-2.3 4.9-3.1 2-.7 4.4-1.1 7.3-1.1H589v-.1m0-2H560.1c-3.1 0-5.8.4-8 1.2-2.3.8-4.2 2-5.7 3.6-1.4 1.5-2.5 3.4-3.2 5.6-.6 2.1-.9 4.4-.9 6.9v7.9c0 2.5.3 4.8.9 6.9.7 2.2 1.7 4.1 3.2 5.6 1.4 1.6 3.4 2.8 5.7 3.6 2.2.8 4.9 1.2 8 1.2h29.1c2 0 3.3-1.4 3.3-3.5v-11.9l.1-9.2c0-1.1-.8-1.9-1.9-2-1.6-.1-3.2-.2-4.7-.2l5.3-1.9c.8-.3 1.3-1 1.3-1.9v-8.3c0-2.2-1.5-3.6-3.6-3.6m-17.6 28.5h-10.3c-1.5 0-2.5-.3-3-.8-.2-.2-.8-1.1-.8-3.5v-6.8c0-1 .1-1.8.2-2.4.1-.5.3-.8.5-1 .2-.2.5-.4.8-.5.5-.1 1.3-.2 2.1-.2h16.8V92.8h-8.2c-1.1 0-2 .9-2 2V96c0 .2 0 .5.1.7l3.2 8.4c.3.2.5.4.6.6M415 79.2c2.4 0 4.4.3 6.1.8 1.7.6 3 1.4 4 2.5s1.8 2.4 2.2 3.9c.5 1.5.7 3.2.7 5.1v2.7c0 1.9-.2 3.5-.7 5-.5 1.5-1.2 2.7-2.2 3.8-1 1-2.3 1.8-3.9 2.4-1.6.6-3.5.8-5.8.8h-.4l12.9 10.9v.4h-12.3L402.5 106l-7.8-6.9h-.4v18.6h-10.9V80.8c0-1.1.5-1.6 1.5-1.6H415m-20.7 18.9H413c1.4 0 2.5-.3 3.1-.8.6-.6.9-1.6.9-3.2v-1.3c0-1.5-.3-2.5-.9-3.1-.6-.6-1.6-.8-3.1-.8h-18c-.5 0-.7.3-.7.9v8.3M415 77.2h-30.1c-2.1 0-3.5 1.4-3.5 3.6v36.9c0 1.1.9 2 2 2h10.9c1.1 0 2-.9 2-2v-14.4l4.8 4.3 13.2 11.7c.4.3.8.5 1.3.5H428c1.1 0 2-.9 2-2v-.4c0-.6-.3-1.2-.7-1.5l-9.3-7.8c.7-.1 1.3-.3 1.9-.5 1.9-.7 3.4-1.6 4.7-2.9 1.2-1.3 2.1-2.8 2.7-4.6.5-1.7.8-3.6.8-5.6v-2.7c0-2.1-.3-4-.8-5.7-.5-1.8-1.5-3.4-2.7-4.7-1.2-1.3-2.9-2.3-4.8-3-1.9-.9-4.2-1.2-6.8-1.2m-18.6 13.6h16.7c1.4 0 1.7.3 1.7.3s.3.3.3 1.6V94c0 1.4-.3 1.7-.3 1.8 0 0-.4.3-1.7.3h-16.7v-5.3zM220.2 65.5c-10.4 0-18.9-8.5-18.9-18.9s8.5-18.9 18.9-18.9c10.4 0 18.9 8.5 18.9 18.9s-8.5 18.9-18.9 18.9m0-35.8c-9.3 0-16.9 7.6-16.9 16.9s7.6 16.9 16.9 16.9c9.3 0 16.9-7.6 16.9-16.9s-7.6-16.9-16.9-16.9"
          class="st2" />
    <path d="M220.2 59.3c-7 0-12.7-5.7-12.7-12.7 0-7 5.7-12.7 12.7-12.7 7 0 12.7 5.7 12.7 12.7 0 7-5.7 12.7-12.7 12.7m0-22.9c-5.6 0-10.2 4.6-10.2 10.2s4.6 10.2 10.2 10.2 10.2-4.6 10.2-10.2-4.6-10.2-10.2-10.2"
          class="st2" />
    <path d="M220.2 41.5c-.6 0-1-.4-1-1V26.2c0-.6.4-1 1-1s1 .4 1 1v14.3c0 .6-.4 1-1 1M220.2 68.4c-.6 0-1-.4-1-1V53c0-.6.4-1 1-1s1 .4 1 1v14.3c0 .6-.4 1.1-1 1.1M213.5 47.6H198c-.6 0-1-.4-1-1s.4-1 1-1h15.5c.6 0 1 .4 1 1 0 .5-.5 1-1 1M242.4 47.6h-15.5c-.6 0-1-.4-1-1s.4-1 1-1h15.5c.6 0 1 .4 1 1 0 .5-.5 1-1 1M220.2 48.8c-1.2 0-2.2-1-2.2-2.2s1-2.2 2.2-2.2c1.2 0 2.2 1 2.2 2.2s-1 2.2-2.2 2.2"
          class="st2" />
    <path d="M79.3 99.3c.5-.2 1-.3 1.4-.6h.2c.1.1.2.1.4.1.3 0 .5-.2.8-.4.2-.2.4-.7.3-1-.1-.2-.3-.4-.5-.4h-.2c-.3.2-.6.3-.9.4-.1 0-.2.1-.2.2-.1.2-.1.3-.2.3s-.2 0-.3-.1c-.1-.1-.2-.1-.2-.1-.1 0-.2.1-.2.2-.2.3-.5.4-.8.4h-.5c-.3 0-.5.1-.8.3-.3.3-.7.4-.8.9-.1.3-.2.7-.5.9 0 0-.1.1-.1.2 0 .3-.2.5-.4.7l-.8.8c-.2.2-.3.3-.6.3H74.1c-.2 0-.2.1-.4.2-.3.3-.6.6-.8 1 0 0-.1 0-.2.1-.9.2-1.5.8-2 1.6-.1.3-.2.6-.5.8-.1.1-.2.1-.2.1l-.2-.2c-.1-.2-.3-.4-.5-.4-.1 0-.2 0-.3.1-1 1-1.9 2-2.7 3.1-.2.2-.2.4 0 .6.1.1.2.2.3.2h.2c1.2-.6 2.2-1.2 3.1-2.2.3-.3.6-.6 1-.8 1.2-.7 2.2-1.7 3.2-2.6.8-.7 1.5-1.7 2.3-2.4.2-.2.4-.3.6-.4.8-.4 1.6-.9 2-1.8.2 0 .2-.1.3-.1m-.8.1-.9.9c-.1-.2.1-.4.2-.5.2-.2.3-.4.5-.6 0-.1.1-.1.2-.1h.1c0 .1 0 .2-.1.3M121.3 38.7c-.1-.4-.4-.7-.7-1.1-.1-.1-.2-.1-.2-.1-.1 0-.2.1-.2.2-.2.4-.6.4-1 .4h-.1c-.3 0-.4-.1-.5-.4-.3-.9-.8-1.8-1.4-2.6-.1-.1-.2-.3-.4-.3h-.1c-.2.1-.4.2-.5.4-.2.6-.2 1.2 0 1.8.1.3.1.5-.3.6-.2.1-.3.2-.3.4-.2.5-.3 1-.5 1.4-.1.2-.1.4 0 .5.4.6.8 1.2 1.5 1.5.1 0 .2.1.3.1.2 0 .2-.1.3-.3 0-.1 0-.2.1-.3.3-.2.4-.3.5-.3.1 0 .3.1.6.3l.1.1c.1 0 .2.1.3.1.2 0 .5-.2.5-.5v-.4c0-.2 0-.2.1-.2h.2c.4.2.7.3 1.1.5.1 0 .2.1.3.1.1 0 .1 0 .2-.1.2-.2.5-.5.4-.8-.1-.3-.2-.6-.3-1"
          class="st3" />
    <path d="M88.6 93.6c-.9.7-1.9 1.4-2.7 2.3-.2.2-.3.5-.5.5-.4 0-.6.4-.8.6-.2.2-.5.4-.7.7-.1.1-.2.1-.3.1-.3 0-.4.2-.6.4-.6.9-1.4 1.5-2.5 1.8h-.2c-.1 0-.1 0-.2-.1-.2-.2-.3-.4-.4-.4-.1 0-.2.1-.4.2h-.1c-.3.1-.4.4-.2.7.1.2.6.4 1 .4h.2c.7-.2 1.4-.6 2.1-1 1.3-.8 2.6-1.6 3.5-2.9.5-.7 1.1-1.4 1.8-1.9 1.1-.8 2.1-1.6 3.1-2.5.8-.8 1.7-1.4 1.9-2.6 0-.2.3-.3.3-.6-.5.4-.9.8-1.3 1.2-.9 1.2-1.9 2.2-3 3.1M65.8 108.8h-.4c-.5 0-1 .2-1.4.3-.4.1-1 .2-1.2.7 0 0-.1 0-.1.1-.5.3-1 .6-1.5.7-.7.2-1.4.5-2.2.8-.3.1-.5.2-.6.5-.1.2-.2.4-.4.5-.4.2-.6.7-1.1.9 0 0 0 .1.1.1.7-.2 1.4-.4 2.2-.6 1.3-.4 2.5-1 3.8-1.5 1.1-.4 2.1-.9 3.1-1.5.2-.1.3-.3.3-.5-.2-.4-.3-.5-.6-.5"
          class="st3" />
    <path d="M142.9 27H39.4c-1.1 0-2 .9-2 2v90.1c0 1.1.9 2 2 2h103.4c1.1 0 2-.9 2-2V29c.1-1.1-.8-2-1.9-2m-3.8 3.2h.2c.6 0 .9.4 1.2.9.1.2.3.5.4.7.1.1.1.2 0 .3h-.1c-.1 0-.1 0-.2-.1l-1.5-1.8c-.1-.1-.3-.1-.4-.1-.2 0-.3.1-.4.3 0 .1-.1.1-.2.1-.4.3-.5.5-.2.9.2.3.4.6.6.8.3.4.3.9.1 1.3-.1.2-.2.3-.4.3-.1 0-.2 0-.2-.1-.2-.1-.4-.2-.5-.3h-.2c-.1 0-.2.1-.2.2l-.3.9c-.2.7-.2 1.4-.7 2.1-.2.3-.6.6-1 .6h-.4c-.2 0-.2.1-.3.3-.1.3-.2.6-.2.9 0 .3-.1.5-.3.6-.2.2-.3.4-.3.6v1.3c0 .3 0 .4-.1.4s-.1 0-.3-.1c-.9-.4-1.7-.9-2.4-1.6-.1-.1-.2-.2-.3-.2-.1 0-.1 0-.2.1s-.2.1-.3.1c-.1 0-.2-.1-.3-.3-.1-.1-.1-.3-.2-.5-.2-1-.7-1.7-1.6-2.1-.1 0-.1-.1-.2-.1h-.1c-.5.3-.9 1.4-.7 2 .3.7.4 1.4.7 2.1.1.3.2.7.3 1-.1 0-.2-.1-.3-.1-.4-.3-.7-.8-1.1-1.2-.5-.5-.9-1-1.7-1.2h-.3c-.3 0-.6.2-.8.4-.2.2-.1.5 0 .7.3.8.1 1.5.3 2.4-.3-.2-.4-.3-.6-.3-.2 0-.2.2-.4.5 0 .1-.1.2-.1.3-.1.5-.4.8-.9.9-.2 0-.4.2-.6.3-.1 0-.1.1-.2.1s-.1 0-.2-.1c-.2-.1-.3-.2-.3-.2-.1 0-.2.1-.3.4 0 .1-.1.2-.1.3-.1.3-.2.5-.4.5-.1 0-.2 0-.3-.1-.1 0-.2-.1-.3-.1h-.1c-.1 0-.1.1-.2.2l-.3.9c0 .1-.1.2-.2.2 0 0-.1 0-.2-.1s-.1-.1-.2-.1h-.1c-.1 0-.1.2-.1.3.1.9-.1 1.8-.1 2.6 0 1.2-.5 2.3-.8 3.5 0 0 0 .1-.1.1-.3.2-.3.4-.1.7.3.4.3.7-.2 1.2-.2.2-.3.5-.1.8.1.1.2.3.3.4-.1 0-.1-.1-.2-.1-.1-.1-.2-.2-.3-.2-.1 0-.2.1-.2.3-.1.2-.1.3-.2.5s-.2.5-.1.7c0 .3.2.5.5.6-.5.2-.9.4-1.3.6-.7.3-1.3.6-2 .6-.2 0-.4 0-.5-.1-.3-.1-.6-.1-.9-.1-.6 0-1.2.2-1.7.7h-.2c-.4-.2-.8-.1-1.1-.4-.1-.1-.2-.1-.4-.1h-.2c-.2 0-.3.1-.3.3 0 .1 0 .3-.1.4-.5-.3-.7-1.1-.5-1.7 0-.1.1-.1.1-.1.3-.1.6-.3.9-.4.5-.2.9-.5 1.1-1 .4-.9.7-2 .8-3 .1-.9.2-1.8.8-2.6.2-.2.4-.4.5-.7.2-.3.4-.5.7-.5H112.3c.2 0 .3-.1.4-.4 0-.4.1-.9.2-1.3 0-.2.1-.3.2-.3s.1 0 .2.1l.5.5c.1.1.3.1.5.1.1 0 .3 0 .3-.1.2-.2.2-.4 0-.7-.2-.2-.3-.5-.5-.7-.2-.3-.5-.7-.5-1.1-.1-.6-.1-1.2.2-1.8.1-.1.1-.2.2-.2 0 0 .1 0 .2.1.3.1.5.3.8.3.2 0 .4-.1.6-.2.6-.4.7-.8.1-1.4-.5-.5-1-.8-1.8-.9-.7-.1-.7-.1-.3-.7.2-.3.5-.7.2-1.1-.1-.1 0-.3.1-.3.2-.2.5-.3.7-.5.5-.3.5-.7.1-1-.2-.1-.3-.3-.3-.5s.1-.4.3-.4h.4c.2 0 .2-.1.2-.3 0-.5.2-.9.3-1.4.1-.2-.1-.5.1-.7.4-.7.3-1.4.3-2.1 0-.1-.1-.2 0-.3.3-.3.3-.6.4-1 .3.4.8.6 1.2.9.1.1.2.1.3.1.2 0 .3-.1.4-.4.1-.2.1-.4.1-.7-.1-.3 0-.5.3-.5.6-.1.9-.5 1.1-1 0-.1.1-.1.1-.2s.1-.3.1-.4h19.9c-.2.2-.4.3-.5.5-.4.1-.4.3-.3.6m-20.3 24.7c.3-.7.3-1.4.2-2 .1-.2.1-.5.2-.7.3-.9.6-2 .6-3.2 0-.3 0-.6.1-.9v-.3c.2-.2.3-.3.5-.6.4-.1 1.1-.3 1.5-1 .2-.1.5-.2.7-.3l.1-.1c.8-.2 1.4-.7 1.8-1.4.2-.1.4-.1.5-.2.5-.3.8-.9.9-1.4.1.1.2.2.4.3.2.1.6.4 1.3.5h.2c.6 0 1.1-.3 1.5-.7.4-.4.5-1 .5-1.5h.2c.6.5 1.2.9 1.8 1.2-.1.2-.3.3-.4.5-1 1.2-1.9 2.3-2.9 3.3-.5.4-.8.9-1 1.3-.1.1-.2.3-.3.4-.3.4-.6.8-.8 1.1-.5.7-1.1 1.5-1.6 2.3-.3.4-.6.8-1 1.3s-.8 1-1.1 1.5c-.8 1.1-1.6 2.2-2.6 3.4l-.3.3c-.4-.5-1-.8-1.5-.9v-.3c.1-.1.2-.3.3-.4.3-.4.4-1 .2-1.5m-7.1 8.7c-.2.1-.4.3-.5.4-.3.3-.6.9-.5 1.8v.4c0 .1 0 .3-.1.4-.1.5 0 .9.1 1.3-.2.1-.4.3-.5.6-.1.1-.2.3-.4.4-.3-.2-.7-.4-1.2-.4-.3 0-.8.1-1.3.5-.4 0-.7.1-1.1.3-.4-.3-.8-.5-1.3-.5h-.4c-.9.2-1.5.9-1.6 1.8v.3c-.5.4-.8 1-.9 1.9-.2.1-.4.3-.6.5h-.1c-.1 0-.2.1-.4.2-.4 0-.8.1-1.2.4-.8.6-1 1.6-.6 2.5v.1c.1.1.2.3.3.5l-.2.2c-.2.2-.3.3-.4.5-.5-.4-1.1-.5-1.3-.5-.5 0-1.1.1-1.7.8l-.5.5c-.9.5-1.2 1.3-1.3 1.7-.1 0-.1.1-.2.1s-.1.1-.2.1-.2 0-.3.1c-.2 0-.5.1-.8.1-.1 0-.2.1-.3.1-.2 0-.3.1-.5.1-1.2.3-2 1-2.5 2.1-.4.9-1.2 1.6-2.2 2.5-.3-.1-.6-.1-.9-.1h-.3c-.5 0-.8.2-1.1.3-.1 0-.1 0-.2.1-.8.2-1.5.9-1.6 1.7 0 .3 0 .7.1 1-.3 0-.7.1-1 .3-.2 0-.3 0-.5.1-.4-.3-.8-.4-1.2-.4-.4 0-.8.1-1.1.3-.5.3-.8.9-.9 1.5-.4.4-.5.9-.5 1.1v.1c-.1.5-.3 1-.5 1.2l-.1.1c-.4.1-.6.3-.8.4l-.1.1c-.3.1-.8.4-1.1 1-.4.3-.7.7-.8 1.2 0 .1 0 .1-.1.1-.7.3-1.1.8-1.4 1.6-.4.2-.6.4-.8.6-.2 0-.5.1-.7.2-.5.1-1 .3-1.3.7-.1.1-.2.2-.2.4-.3.1-.6.3-.8.5-.3.1-.6.2-.9.4-.4.3-.7.8-.8 1.3h-.2c-.2 0-.4 0-.6.1h-.2c-.2 0-.4.1-.6.1h-.1c-.9.2-1.4.6-1.6 1.1-.3.2-.5.5-.7.8 0 .1-.1.2-.1.4-.1 0-.2 0-.3.1-.3.1-.5.2-.7.4-.3.3-.5.7-.6 1.1-.3.2-.6.5-.8.9-.4-.3-.9-.4-1.4-.4-.5 0-.9.1-1.3.4-.3.2-.5.3-.7.5l-.3.2c-.4.3-1.1.9-1 2.2 0 .2 0 .4.1.6-.2.2-.4.4-.5.6-.4.2-.6.5-.8.7-.1.1-.2.2-.4.2.7-1.3-.1-2.4-.3-2.6-.4-.5-.9-.8-1.5-1-.2-.1-.4-.1-.6-.2-.2-.1-.4-.1-.6-.2-.2-.1-.4-.2-.5-.2-.4-.3-.9-.5-1.4-.5h-.4c-.6.1-1.2.5-1.4 1.1 0 .1-.1.1-.1.2-.5.2-.9.7-1.2 1.2-.1.2-.3.5-.4.9-.3.5-.4 1-.4 1.2v.1c0 .1-.1.1-.1.2-.4.5-.5 1-.5 1.6 0 .5.3 1 .7 1.4.1.4.2.6.3.8v.1l-.1.1-.1.1c-.6.3-1 .8-1.1 1.4l-.5.5c-.1.1-.2.1-.3.1-.2-.4-.6-.9-1.4-1.2-.6-.2-1.2-.7-1.8-1.2v-.2c-.1-.5-.1-1-.1-1.3 0-.5.1-1 .4-1.7.4-.9.4-1.7-.1-2.4-.2-.3-.4-.6-.7-.7 0-.3.1-.5.1-.8.9-.5 1.4-1.4 1.3-2.5-.1-.4-.1-.9-.1-1.5v-.7c0-.3-.1-.7-.2-1 0-.2 0-.5.1-.9v-.1c.1-.6.1-1.2.1-1.8v-.1c.2 0 .3.1.5.1s.4 0 .5-.1c.1 0 .2-.1.4-.1.6.6 1.2.7 1.6.7.4 0 .8-.1 1.2-.4.5-.3.8-.9.9-1.4.1-.4 0-1-.4-1.6 0 0 0-.1-.1-.1v-.1c.1-.1.2-.2.3-.4.3.1.6.1.9.2 0 0 .1.1.1.2l.4.4c.5.6 1.1.7 1.5.8h.2c.6 0 1.2-.3 1.5-.7.4-.5.5-1.1.4-1.7.2-.5.1-1.1-.2-1.8.2 0 .3-.1.5-.2.8-.4 1.2-1.3 1-2.1-.1-.4-.2-1-.4-1.5.3-.6.5-.6.7-.6.4 0 .8-.1 1.2-.4.7-.5 1-1.5.7-2.4-.1-.2-.1-.4-.2-.7-.1-.4-.2-.9-.4-1.4-.4-.9-.6-1.7-.6-2.5.4-.2.6-.5.9-.8.2-.3.4-.6.7-.9.3.7.8 1.3 1.4 1.8.2.1.6.5 1.4.5h.4c.3 0 .7 0 1.1-.1.5-.1.8-.3 1-.5.1.1.2.1.3.2.3.2.6.3.9.4.2 0 .3.1.5.1.7 0 1.4-.4 1.7-1 .4-.8.3-1.8-.3-2.4-.3-.3-.6-.8-.9-1.3v-.1c.4 0 .8-.1 1.1-.2h.1c.3-.1.8-.2 1.3-.5.6.7 1.3.9 1.8.9.4 0 .7-.1 1-.3.8-.4 1.4-1.4 1-2.7-.1-.2-.2-.5-.2-.7-.1-.4-.3-.7-.3-.9V73c.1-.1.3-.1.5-.2.1-.1.3-.1.7-.1.3 0 .7.1 1.1.1.5.1 1 .2 1.4.4.1 0 .2.1.3.1.1 0 .1.1.2.1.4.6 1.1.9 1.8.9.6 0 1.1-.2 1.5-.6.5-.5.8-1.2.6-1.9v-.2c.2-.2.4-.5.7-.7 1-.8 1.6-1.8 1.9-3 .1-.5.1-1 0-1.5-.1-.2-.1-.4-.2-.5h.1c.3.1.6.1.9.2.1 0 .3 0 .3.1.2.1.4.1.6.1.6 0 1.2-.3 1.6-.8.1-.1.1-.1.1-.2h.3c1.2 0 1.8-.8 2-1.1.4-.6.8-.9 1.3-1.1 1.5-.5 3.1-1.1 4.7-1.8 1.1-.4 2.2-1 3.3-1.6.3-.2.8-.3 1.4-.4 1.1-.2 2-.7 2.8-1.1l.2-.1c.7-.4 1.2-.8 1.7-1.2.3-.2.5-.4.8-.6.4-.3.9-.5 1.5-.8.7-.3 1.2-.7 1.6-1 .2-.2.4-.3.5-.4 1.2-.7 2.1-1.7 2.9-3.1.2-.3.3-.6.5-.9.2-.4.4-.8.6-1.1.5-.7.5-1.3.5-1.6 0-.7.1-1.4.4-2.3.2-.7.5-1.3.9-2.1.2-.4.5-.9.8-1.3 0 .1.1.3.2.5.1.3.3.5.4.6-.7 1.2-.6 2.3-.5 3.1v.2c-.3.3-.5.7-.6 1.2 0 .1 0 .2-.1.3-.5.2-1 .7-1.3 1.2-.1.1-.2.3-.3.4-1.1 1.2-1.2 2.6-1.3 3.7-.1.8-.3 1.6-.6 2.3 0 0-.1 0-.1.1l-.6.3-.3.1c-.8.3-1.1 1-1.2 1.3-.5 1.4.1 3.2 1.3 4 .3.2.7.3 1.1.3.4 0 .8-.1 1.2-.4h.2c.3.1.6.2.8.2.6 0 1.1-.2 1.5-.6.1-.1.2-.1.3-.1.1 0 .2 0 .4.1.3.1.7.1 1.1.1h.3c0 .1.1.2.1.3-.6.1-1.9.5-1.8 2.5-.2.1-.2.2-.1.2m-63.9 55.5H45c.5-.1.9-.3 1.2-.7l.6-.6c.2-.2.4-.4.3-.7 0-.1 0-.2.1-.2.3-.1.5-.4.8-.6.1-.1.2-.1.3-.1.1 0 .2 0 .3.1.1.1.3.3.5.3h.1c.6-.1.9-.6.7-1.1 0-.1-.1-.3-.1-.4-.3-.6-.5-1.3-1.4-1.3-.2 0-.1-.2-.1-.2.1-.3 0-.5-.2-.6l-.3-.3c-.2-.1-.2-.3-.1-.4.2-.1.2-.4.3-.5.2-.4.1-1 .5-1.3v-.1c0-.3.3-.6.4-.8.1-.2.2-.2.4-.2h.4c.3-.1.4-.2.4-.5 0-.2-.1-.4 0-.6.3.3.8.5 1.2.6.4.1.8.3 1.3.4.2.1.4.2.5.4.2.3 0 .5-.2.7 0 .1-.1.1-.1.1-.1 0-.1-.2-.2-.2s-.2-.1-.3-.1h-.1c-.1.1-.2.2-.2.3 0 .5.4 1 .8 1.1-.1.3-.1.6-.4.7-.1.1-.1.3 0 .4.3.3.6.6.5 1.1.3.2.1.4 0 .6-.1.2-.3.3-.4.5-.1.1-.1.1-.2.1 0 0-.1 0-.2-.1 0 0-.1-.1-.2-.1s-.2 0-.2.1c-.2.2-.4.3-.6.5-.9 1.1-1.8 2.1-2.8 3.1-.1.1-.3.3-.5.6M117 29c-.3.3-.6.7-.8 1.1 0 .1-.1.2-.2.2-.3.1-.3.3-.3.6 0 .2-.1.4-.1.5 0 .1-.1.2-.1.2h-.2c-.2 0-.5.1-.7.1-.3 0-.4.2-.5.5-.1.3-.2.7-.2 1-.3 1.1-.6 2.1-.9 3.2-.2.7-.5 1.4-1.2 1.9-.5.3-1 .8-1.3 1.3-.5.8-1 1.7-1.5 2.5-.4.8-.8 1.6-1.1 2.5-.3.9-.4 1.9-.5 2.8 0 .1 0 .3-.1.4-.5.7-.8 1.4-1.1 2.1-.5 1-1.2 1.8-2.1 2.4-.7.4-1.2 1-1.9 1.3-.7.3-1.3.6-1.9 1-.8.6-1.5 1.3-2.3 1.8-.8.4-1.5.9-2.4 1-.7.1-1.4.3-2 .6-1 .5-2 1.1-3.1 1.5-1.5.6-3.1 1.2-4.6 1.8-.9.3-1.6 1-2.2 1.7-.2.2-.3.3-.4.3-.1 0-.2-.1-.4-.2s-.3-.3-.5-.4c-.2-.3-.6-.4-.9-.4h-.9c-.2 0-.4 0-.5-.1H80c-.2 0-.4.2-.4.5s.1.5.4.5c.2 0 .5 0 .6.1.3.3.5.6.7.9-.4-.1-.9-.1-1.2-.3-.4-.1-.9-.2-1-.8 0-.1-.1-.2-.2-.2l-.6-.3c-.1 0-.1-.1-.2-.1s-.2.1-.3.2c-.2.4-.5.7-.8 1-.4.5-.4 1.3 0 1.7.4.4.6 1 .8 1.5v.4c-.2.8-.7 1.4-1.3 2-.7.6-1.2 1.2-1.6 2-.1.3-.1.5.1.6.1 0 .3.1.1.2l-.1.1c-.1 0-.1 0-.2-.1-.3-.5-.9-.6-1.3-.8-.6-.2-1.2-.4-1.8-.5-.5-.1-1-.2-1.5-.2-.6 0-1.1.1-1.6.4-.5.3-1.2.3-1.3 1.1-.4.4-.3.8-.2 1.2.1.7.4 1.3.6 1.9 0 .1.1.3 0 .3h-.1c-.1 0-.2-.1-.2-.2-.2-.2-.4-.5-.6-.7-.1-.1-.2-.2-.3-.2-.1 0-.2 0-.2.2 0 .1-.1.1-.1.1-.1 0-.1 0-.2-.1-.1 0-.2-.1-.3-.1-.1 0-.3 0-.4.1-.3.3-.7.4-1.1.5-.3.1-.6.2-.9.2-.2 0-.4 0-.6-.1-.2-.1-.2-.1-.1-.3.2-.2.3-.4.5-.7.3-.4.2-.7-.3-.9-.7-.2-1.4-.1-2.1-.4-.4-.2-.8-.3-1.1-.4-.1 0-.2-.1-.3-.1-.3 0-.5.2-.5.6 0 .4.1.8.2 1.2.1.4.2.9.5 1.3.4.3.7.7 1 1 1.1 1 1.5 2.5 2.5 3.5-.1 0-.2-.1-.3-.1-.8-.6-1.6-1.1-2.1-1.9-.1-.2-.3-.2-.5-.2H60c-.2 0-.2.2-.3.4-.1.5 0 1 .2 1.4.1.2 0 .3-.2.4-.2 0-.4.1-.6.1h-.4c-.1 0-.1-.1-.2-.1-.5-.4-.8-.9-.9-1.6-.1-.5-.5-.8-.9-1-.2-.1-.4-.1-.6-.1-.1 0-.2 0-.3.1-.8.7-1.6 1.4-2.2 2.3 0 .1-.1.1-.2.2-.6.2-1 .8-1 1.4 0 1.2.3 2.4.8 3.5.3.7.3 1.4.6 2-.3-.3-.6-.5-.9-.8-.9-.9-2.1-1.4-3.3-1.6h-.1c-.1 0-.2.1-.3.2-.3.4-.4.8-.4 1.2 0 1.1.5 2.1 1.7 2.4.1 0 .2.1.2.1.5.7.7 1.5.8 2.3-.2-.2-.3-.4-.5-.6-.6-.5-1.3-1-1.9-1.5-.1-.1-.3-.2-.4-.2-.1 0-.3 0-.4.1-.2.2-.3.5-.1.8.4.6.3 1.3.3 1.9 0 .6.3 1 .8 1.1.1 0 .3.1.3.2.1.4.4.6.6.9.1.1.2.2.1.3-.3.3-.1.7 0 1-.1 0-.2-.1-.2-.2-.5-.4-.8-1-1.5-1.1-.5 0-.9-.2-1.4-.3H46.2c-.3 0-.5.2-.6.5 0 .2-.1.4-.1.6-.1-.1-.3-.2-.4-.2H45c-.5.1-.9 1.2-.7 1.6 0 .1.1.2.2.2.6.1.7.6 1 1.1.1.1.2.2 0 .3h-.1c-.1 0-.1-.1-.2-.2-.2-.4-.6-.6-1-.8-.2-.1-.4-.2-.7-.2h-.2c-.4.1-.4.4-.5.6-.3-.2-.3-.2-.4-.5-.1-.2-.5-.4-.8-.4-.1 0-.2 0-.3.1-.5.6-.9 1.3-.9 2.1s0 1.6-.1 2.3c-.1.6-.2 1.2 0 1.8.1.2.1.4.1.6.1.8.1 1.6.2 2.4 0 .2 0 .3-.3.4-.1 0-.3.1-.4.2V29H117zm-77.6 81c.4.1.4.3.2.8-.1.2-.2.4-.2.6V110zm0 5.9c0 .1.1.1.1.2.9.7 1.7 1.5 2.8 1.9.2.1.3.1.1.4-.2.3-.2.7.1.9h-3.2v-3.4zm10 3.2.5-.5c1.1-1.2 2.2-2.4 3.2-3.6 1-1.1 2.2-2 3.5-2.8.1 0 .1-.1.2-.2.1-.2.3-.4.5-.4.1 0 .2-.1.3-.2.2-.5.6-.7 1-.9.2-.1.2-.2.2-.4-.1-.5-.3-1-.3-1.5 0-.1 0-.3.1-.4l.9-.6c.1-.1.2-.1.3-.1.2 0 .3.1.4.3.2.5.2 1 .1 1.5 0 .1 0 .3.1.4l.1.1h.2c.2-.1.3-.1.5-.2.6-.2.7-.4.7-1.1 0-.2 0-.4.3-.5.3-.1.5-.3.6-.6.2-.4.4-.8.9-.9.5-.1.5-.4.4-.8 0-.1-.1-.1 0-.2h.1c.1 0 .1 0 .2.1.2.1.3.2.4.2.1 0 .3-.1.4-.2.1-.1.1-.1.2-.1H65.7c.2 0 .3-.2.2-.4-.1-.3-.2-.5-.2-.7-.1-.2 0-.3.2-.4.1 0 .3-.1.3-.2 0-.4.3-.4.6-.5.2-.1.4-.1.7-.2h.2c.3 0 .5.1.6.4.1.2.1.4.2.5.1.2.2.2.4.2.1 0 .3-.1.4-.2.2-.3.2-.5-.1-.7-.2-.2-.1-.4.1-.6l.1-.1c.1 0 .2.1.3.1h.2c.1 0 .1 0 .2-.1s.1-.2.1-.4c0-.1-.1-.3-.1-.4-.1-.2-.1-.4.1-.5.2.2.4.3.5.3.2 0 .3-.2.4-.5.1-.4.4-.4.7-.4.5 0 .6-.2.6-.7v-.2s.1 0 .1.1c.1.1.1.1.2.1s.2-.1.2-.2.1-.1.2-.1h.2c.2.1.3.1.4.1.2 0 .3-.1.5-.4.1-.2.1-.4.4-.6.5-.2.9-.6 1-1.1 0-.2.1-.3.3-.4.7-.3 1-.8 1.2-1.5 0-.1.1-.2.2-.2.3 0 .3-.2.4-.4 0-.1 0-.2.2-.3.3-.1.6-.3.9-.4.3-.1.6-.3.8-.5.6-.6.8-1.4 1.1-2.2 0-.2.1-.3.2-.4.3-.3.6-.6.4-1.1.2.2.3.4.4.6.1.1.1.2.3.2h.1c.2-.1.5-.1.7-.3.1-.1.1-.1.2-.1s.1 0 .2.1c.1 0 .2.1.3.1.1 0 .2 0 .2-.2.1-.2.2-.3.4-.3.1 0 .2 0 .3.1.2.1.5.1.7.1.7 0 1.3-.5 1.2-1.4 0-.2 0-.4.1-.6.2-.3.2-.5-.2-.7-.2-.1-.3-.2-.5-.3.3-.1.6-.2 1-.3h.1c.1 0 .3 0 .4.1.2.1.4.2.6.2.2 0 .5-.1.8-.3 1.2-1 2.5-2 3.1-3.5.2-.5.6-.8 1.1-.9.3-.1.5-.1.8-.2.6-.1 1.2-.1 1.7-.5.4-.3.9-.5 1.1-1 .1-.3.2-.6.5-.8.4-.2.8-.5 1.1-.9.1-.1.1-.1.2-.1 0 0 .1 0 .1.1.2.4.5.9.8 1.3.1.2.2.4.4.4h.1c.3-.1.7-.4.7-.7 0-.1 0-.2.1-.2H100.7c.2 0 .3-.2.5-.4 0-.1.1-.2.2-.2h.1c.1.1 0 .2-.1.3-.4.4-.7.9-1.1 1.3-.1.1-.2.2-.4.2-.4 0-.6.2-.7.6 0 .2 0 .5-.2.7-.1.1-.1.1-.2.1s-.1-.2-.1-.2c0-.3-.1-.4-.4-.5h-.1c-.1 0-.3.1-.3.2-.1.2-.1.4 0 .6.1.1.2.2.1.3-.2.4-.2.9-.6 1.1-.1.1-.2.3-.3.4-.4.5-.6 1.1-.9 1.6 0 .1-.3.3 0 .4.1 0 .2.1.3.1.1 0 .2 0 .2-.2.6-.8 1.3-1.5 1.8-2.3.5-.7 1.1-1.3 1.6-1.9.8-.9 1.5-1.9 2.4-2.7.6-.7 1.4-1.3 1.9-2.1l.2-.2c.6-.2 1-.9.9-1.5 0-.2-.1-.2-.2-.2s-.1 0-.2.1l-.6.6c-.1.1-.1.1-.2.1h-.1c-.1-.1-.2-.1-.3-.1-.2 0-.4.2-.4.4-.3.7-.6 1.3-1.1 1.8-.1.1-.2.3-.4.3-.1 0-.2 0-.3-.1h-.1c-.1 0-.1 0-.2.1h-.1s-.1 0-.1-.1 0-.2.1-.2c.3-.3.6-.6.9-.8.5-.3.5-1.1 0-1.4-.3-.2-.5-.5-.6-.9.1.1.3.2.4.2.2 0 .3-.1.4-.3.1-.1.2-.2.3-.2.3-.1.6-.3.8-.6l.2-.2c.1 0 .1 0 .2.1s.1.1.2.1h.2c.4-.1.6-.8.3-1.1-.1-.1 0-1 .1-1.1h.5c.3 0 .4-.2.3-.6 0-.3-.1-.6-.1-1.1.4.7 1 .8 1.6.9h.2c.3 0 .6-.2.6-.6 0-.1.1-.2.1-.2h.1c.2.1.4.1.5.1.2 0 .3-.1.5-.5 0-.1.1-.1.1-.1h.1c.2.2.4.2.6.3.1.1.2.1.1.3-.3.3-.6.7-1 1-.4.4-.8.7-1.2 1.1-.2.2-.3.4-.1.6.1.1.2.1.2.1.1 0 .2-.1.3-.2.2-.2.5-.4.6-.6 1.1-1.2 2.5-2.2 3.5-3.6l.3-.3c.5-.4 1-.8 1.3-1.3.6-.8 1.3-1.5 2-2.2.5-.6 1.1-1.1 1.5-1.8.1-.2.1-.3-.1-.5-.1 0-.1-.1-.2-.1s-.2.1-.3.2c-.4.5-.8.9-1.3 1.4-.7.8-1.4 1.5-2.3 2-.1 0-.1.1-.2.1h-.1c-.1-.1 0-.2 0-.3 0-.5.2-.9.1-1.4 0-.2 0-.3.3-.3.7 0 .8-.3.8-.9 0-.3-.1-.6-.1-1 0-.2 0-.5.1-.5.3 0 .1.3.2.5 0 .3.2.4.5.5h.1c.2 0 .3-.2.3-.4s.2-.3.3-.3h.4c.3 0 .4-.1.5-.5.1-.7.1-1.3-.1-2-.1-.2-.2-.4-.4-.5-.1 0-.2-.1-.2-.2s.1-.1.2-.2h.1c.7-.4 1.6-.3 2.4-.6h.1c.1 0 .2.1.2.2.1.4.3.7.6.9.3.3.3.4 0 .7-.2.3-.5.5-.5.9 0 .1-.2.3 0 .3h.2c.1 0 .2 0 .3-.1.1 0 .1-.1.2-.2.2-.2.4-.4.5-.6.7-.8 1.5-1.7 2.2-2.5 1-1.2 1.9-2.3 2.7-3.6.7-1 1.5-1.8 2.1-2.8.8-1.2 1.6-2.3 2.4-3.4.3-.5.6-1 1-1.4 1.1-1.1 2.1-2.3 3.1-3.5 1.1-1.3 2.1-2.6 3.1-3.9.9-1.1 1.7-2.2 2.5-3.4.6-.8 1.1-1.7 1.7-2.4.5-.5 1-1 1.4-1.6.4-.6.8-1.3 1.1-1.9v88H49.4z"
          class="st3" />
    <path fill="none" d="M0 0h630v146.2H0z" />
</svg>