<svg xmlns="http://www.w3.org/2000/svg" xml:space="preserve" x="0" y="0" version="1.1" viewBox="0 0 244.3 329">
    <style>
        .st1 {
            fill: none;
            stroke: #c0f
        }
    </style>
    <g opacity=".25">
        <path d="M17.1 328.6v-21.5m10.7 10.8H6.3M60.2 328.6v-21.5m10.7 10.8H49.4M103.3 328.6v-21.5m10.7 10.8H92.5M146.4 328.6v-21.5m10.7 10.8h-21.6M189.5 328.6v-21.5m10.7 10.8h-21.6M232.6 328.6v-21.5m10.7 10.8h-21.6M17.1 294.5V273m10.7 10.7H6.3M60.2 294.5V273m10.7 10.7H49.4M103.3 294.5V273m10.7 10.7H92.5M146.4 294.5V273m10.7 10.7h-21.6M189.5 294.5V273m10.7 10.7h-21.6M232.6 294.5V273m10.7 10.7h-21.6M17.1 260.4v-21.5m10.7 10.7H6.3M60.2 260.4v-21.5m10.7 10.7H49.4M103.3 260.4v-21.5m10.7 10.7H92.5M146.4 260.4v-21.5m10.7 10.7h-21.6M189.5 260.4v-21.5m10.7 10.7h-21.6M232.6 260.4v-21.5m10.7 10.7h-21.6M17.1 226.3v-21.6m10.7 10.8H6.3M60.2 226.3v-21.6m10.7 10.8H49.4M103.3 226.3v-21.6m10.7 10.8H92.5M146.4 226.3v-21.6m10.7 10.8h-21.6M189.5 226.3v-21.6m10.7 10.8h-21.6M232.6 226.3v-21.6m10.7 10.8h-21.6M17.1 192.1v-21.5m10.7 10.8H6.3M60.2 192.1v-21.5m10.7 10.8H49.4M103.3 192.1v-21.5m10.7 10.8H92.5M146.4 192.1v-21.5m10.7 10.8h-21.6M189.5 192.1v-21.5m10.7 10.8h-21.6M232.6 192.1v-21.5m10.7 10.8h-21.6M17.1 158v-21.5m10.7 10.8H6.3M60.2 158v-21.5m10.7 10.8H49.4M103.3 158v-21.5m10.7 10.8H92.5M146.4 158v-21.5m10.7 10.8h-21.6M189.5 158v-21.5m10.7 10.8h-21.6M232.6 158v-21.5m10.7 10.8h-21.6M17.1 123.9v-21.5m10.7 10.7H6.3M60.2 123.9v-21.5m10.7 10.7H49.4M103.3 123.9v-21.5m10.7 10.7H92.5M146.4 123.9v-21.5m10.7 10.7h-21.6M189.5 123.9v-21.5m10.7 10.7h-21.6M232.6 123.9v-21.5m10.7 10.7h-21.6M17.1 89.8V68.2M27.8 79H6.3M60.2 89.8V68.2M70.9 79H49.4M103.3 89.8V68.2M114 79H92.5M146.4 89.8V68.2M157.1 79h-21.6M189.5 89.8V68.2M200.2 79h-21.6M232.6 89.8V68.2M243.3 79h-21.6M17.1 55.7V34.1m10.7 10.8H6.3M60.2 55.7V34.1m10.7 10.8H49.4M103.3 55.7V34.1M114 44.9H92.5M146.4 55.7V34.1m10.7 10.8h-21.6M189.5 55.7V34.1m10.7 10.8h-21.6M232.6 55.7V34.1m10.7 10.8h-21.6M17.1 21.5V0m10.7 10.8H6.3M60.2 21.5V0m10.7 10.8H49.4M103.3 21.5V0M114 10.8H92.5M146.4 21.5V0m10.7 10.8h-21.6M189.5 21.5V0m10.7 10.8h-21.6M232.6 21.5V0m10.7 10.8h-21.6"
              class="st1" />
    </g>
    <linearGradient id="pluses-shape-mask" x1="828.8328" x2="1072.1729" y1="-787.1662" y2="-787.1662"
                    gradientTransform="matrix(-1 0 0 -1.0414 1072.1729 -655.2559)" gradientUnits="userSpaceOnUse">
        <stop offset="0" stop-color="#000d3f" stop-opacity="0" />
        <stop offset=".65" stop-color="#000d3f" stop-opacity=".25" />
        <stop offset=".9" stop-color="#000d3f" stop-opacity=".5" />
        <stop offset="1" stop-color="#000d3f" />
    </linearGradient>
    <path fill="url(#pluses-shape-mask)" d="M0 0h243.3v329H0z" />
</svg>