<svg xmlns="http://www.w3.org/2000/svg" xml:space="preserve" id="Layer_1" x="0" y="0" version="1.1"
     viewBox="0 0 1500 550.1">
      <style>
            .st0 {
                  fill: none;
                  stroke: #9f32f4;
                  stroke-width: 2;
                  stroke-miterlimit: 4
            }
      </style>
      <path d="M24.3 0 0 8.2M87.4 0 0 31.6M147.4 1 0 60.8M275.5-.1 0 142.5M210.7-.4.4 96.9M337.5-.1 0 202.9M397.6-.1 0 281.8M460.7-.2 0 397.2M524.8-.3 22.3 550M587.8-.4 225.8 550M649.9-.6l-224 550.5M711-.8l-82 550.5M774-1l55 550.5M836.9-1.3l192.9 552.1M896.9-1.4l336 550.5M961.8-1.6l470 550.5M1023.7-1.7l476.3 431M1086.6-.8 1500 304.1M1149.6-.8 1500 220.8M1210.5-1.8 1500 157.6M1276.4-.9 1500 106.3M1339.4-.9 1500 68.5"
            class="st0" />
      <path fill="none" stroke="#9f32f4" stroke-width="2"
            d="M0 422.2h1500M0 331.1h1500M0 261.5h1500M0 206.7h1500M0 162.6h1500M0 126.4h1500M0 96h1500M0 70.5h1500M0 49h1500M0 29.4h1500M0 11.8h1500" />
      <path d="m1401.7 0 98.3 40.6M1458 0l42 18.2" class="st0" />
</svg>