<svg xmlns="http://www.w3.org/2000/svg" width="585" height="99" fill="none">
      <g clip-path="url(#limg_logo)">
            <path fill="#99FF39"
                  d="M193.3 98.6V64.4c0-.7-.3-1.1-.9-1.1h-.7c-.3 0-.5.1-.7.2-.2.1-.4.4-.4.6l-12.5 33c-.1.5-.4.9-.9 1.2-.5.2-1 .3-1.6.3h-14.9c-.5 0-1.1-.1-1.6-.3-.4-.3-.7-.7-.8-1.2L146 64.2c-.1-.2-.2-.5-.5-.6-.2-.1-.5-.2-.7-.2h-1c-.1 0-.3.1-.4.2-.1.1-.2.2-.2.4V98.7H131V54.9c0-1.3.6-1.9 1.8-1.9h20.6c.6-.1 1.1.1 1.6.4.5.3.8.8 1 1.3l11.2 32.6c0 .3.3.4.6.4h1.1c.1 0 .2 0 .3-.1.1-.1.2-.2.2-.3l11.3-32.6c.2-.5.5-1 1-1.3.5-.3 1-.4 1.6-.4h20.4c1.2 0 1.8.6 1.8 1.9v43.7h-12.2ZM211.6 98.6V53h12.9v45.6h-12.9ZM251.2 53c.7-.1 1.4.1 2 .4.4.4.8.8 1.1 1.4l17.3 32.7c.1.2.3.4.5.5.2.1.5.2.7.2h1.1c.1 0 .3-.1.4-.2.1-.1.2-.2.2-.4V53h11.7v43.8c0 1.2-.6 1.8-1.7 1.8H266c-.7 0-1.4-.1-2-.4-.5-.4-1-.9-1.2-1.4l-17.9-32.7c-.1-.2-.3-.4-.5-.6-.2-.1-.5-.2-.7-.2h-1.1c-.1 0-.3.1-.4.2-.1.1-.2.2-.2.4V98.6h-11.7V54.9c0-1.3.6-1.9 1.7-1.9h19.2ZM291.8 98.6V53h12.9v45.6h-12.9ZM473.1 80.5c0 2.5-.3 5.1-1.1 7.5-.6 2.1-1.7 4.1-3.2 5.7-1.6 1.6-3.6 2.9-5.7 3.6-2.8.9-5.7 1.4-8.6 1.3h-20.3c-2.9.1-5.9-.4-8.6-1.3-2.2-.7-4.2-2-5.8-3.6-1.5-1.6-2.6-3.6-3.2-5.7-.7-2.4-1.1-5-1.1-7.5v-9.4c0-2.5.3-5.1 1.1-7.5.6-2.1 1.7-4.1 3.2-5.7 1.6-1.7 3.6-2.9 5.8-3.6 2.8-.9 5.7-1.4 8.6-1.3h20.3c2.9-.1 5.8.4 8.6 1.3 2.2.7 4.1 2 5.7 3.6 1.5 1.6 2.6 3.6 3.2 5.7.7 2.4 1.1 5 1.1 7.5v9.4Zm-44.6-1.1c0 1.3.1 2.6.5 3.8.3.9.8 1.7 1.5 2.2.8.6 1.7.9 2.7 1.1 1.4.2 2.7.3 4.1.3h16c1.2 0 2.3-.1 3.4-.4.8-.2 1.6-.8 2.1-1.5.6-.8.9-1.8 1.1-2.8.2-1.4.3-2.9.3-4.3v-6c0-2.8-.5-4.7-1.6-5.8-1-1-2.8-1.6-5.3-1.6h-18c-1.2 0-2.3.1-3.4.4-.8.2-1.6.8-2.1 1.5-.6.8-.9 1.8-1.1 2.8-.2 1.4-.3 2.9-.3 4.3l.1 6ZM491.3 53v32.2c0 .4.1.8.3 1.1.2.1.3.3.6.3.2.1.4.1.6.1h35.7v11.9h-46.8c-.5 0-.9 0-1.4-.2-.4-.2-.8-.4-1.2-.7-.6-.7-.8-1.7-.8-2.6V53h13ZM545.7 75.8h-.4v22.9h-12.9V54.9c0-.3 0-.5.1-.7.1-.2.2-.5.4-.6.2-.2.4-.3.6-.4.2-.1.5-.1.7-.1h48.6c.3 0 .5 0 .7.1.2.1.5.2.6.4.2.2.3.4.4.6.1.2.1.5.1.7v12.3l-11.9 4h-.6v-6.1c0-.5-.2-.7-.6-.7h-25.1c-.8 0-1.2.4-1.2 1.1v9h20.9v10.2H549l-3.3-8.9ZM398.5 69.2l12-4.4V55c0-.3 0-.5-.1-.7-.1-.2-.2-.5-.4-.6-.2-.2-.4-.3-.6-.4-.2-.1-.5-.1-.7-.1h-34.1c-2.9-.1-5.8.4-8.6 1.3-2.2.7-4.2 2-5.8 3.6-1.5 1.6-2.6 3.6-3.2 5.7-.7 2.4-1 4.9-1 7.5v9.4c0 2.5.3 5 1 7.5.6 2.1 1.7 4.1 3.2 5.7 1.6 1.7 3.6 2.9 5.8 3.6 2.8.9 5.7 1.3 8.6 1.3H409c1.1 0 1.6-.6 1.6-1.7V82.8l.1-10.9c-3.9-.3-7.9-.3-11.9-.3H386v1.3l3.7 9.9h8.2v3.3c0 .5-.2.7-.7.7h-21.5c-2.5 0-4.2-.5-5.3-1.6-1.1-1.1-1.6-3-1.6-5.8v-8c0-1.2.1-2.3.4-3.5.2-.8.6-1.6 1.2-2.2.6-.6 1.3-1 2.1-1.2 1-.3 2.1-.4 3.2-.3h21.7c.4 0 .6.2.6.6v4.4h.5Z" />
            <path fill="#40E7C9"
                  d="M219.5 22.2c0 2-.2 4-.8 5.9-.5 1.7-1.4 3.2-2.5 4.5-1.3 1.3-2.8 2.3-4.5 2.9-2.2.7-4.5 1.1-6.8 1.1h-16.1c-2.3 0-4.7-.3-6.9-1.1-1.7-.6-3.3-1.6-4.6-2.9-1.2-1.3-2.1-2.8-2.5-4.5-.5-1.9-.8-3.9-.8-5.9v-7.5c0-2 .2-4 .8-5.9.5-1.7 1.4-3.2 2.5-4.5 1.3-1.3 2.8-2.3 4.6-2.9 2.2-.7 4.5-1.1 6.9-1.1h16.1c2.3 0 4.6.3 6.8 1.1 1.7.6 3.3 1.6 4.6 2.9 1.2 1.3 2.1 2.8 2.5 4.5.6 1.9.8 3.9.8 5.9l-.1 7.5Zm-35.4-.9c0 1 .1 2 .4 3 .2.7.6 1.3 1.2 1.8.6.4 1.3.7 2.1.8 1.1.2 2.2.2 3.3.2h12.7c.9 0 1.8-.1 2.7-.3.7-.2 1.3-.6 1.7-1.2.4-.7.7-1.4.8-2.2.2-1.1.2-2.3.2-3.4v-4.8c0-2.2-.4-3.7-1.2-4.6-1.2-1-2.7-1.4-4.2-1.2h-14.2c-.9 0-1.8.1-2.7.3-.7.2-1.3.6-1.7 1.2-.4.7-.7 1.4-.8 2.2-.2 1.1-.2 2.3-.2 3.4v4.8h-.1ZM141.1 1.1v25.2c0 .3.1.6.3.9.1.1.3.2.4.3.2.1.3.1.5 0h28v9.3h-36.7c-.4 0-.7 0-1.1-.1-.3-.1-.7-.3-.9-.6-.4-.6-.6-1.3-.6-2v-33h10.1ZM239.8 1.1c.6 0 1.1.1 1.6.3.4.3.6.6.9 1.1l13.5 25.6c.1.2.2.3.4.4.2.1.4.2.6.2h.8c.1 0 .2-.1.3-.2.1-.1.1-.2.2-.3V1.1h9.2v34.3c0 .9-.5 1.4-1.4 1.4h-14.5c-.5 0-1.1-.1-1.5-.3-.4-.3-.7-.7-1-1.1l-14-25.6c-.1-.2-.2-.3-.4-.4-.2-.1-.4-.2-.6-.2h-.8c-.1 0-.2.1-.3.2-.1.1-.1.2-.2.3v27.1h-9.2V2.5c0-1 .5-1.5 1.4-1.5h15v.1ZM333 36.7V1.1h10.1v35.7H333v-.1ZM381 13.4h-.4V9.3c0-.1-.1-.1-.1-.2-.1-.1-.1-.1-.2-.1h-19c-.2-.1-.5 0-.7 0-.2.1-.5.2-.6.4-.2.2-.3.4-.4.6-.1.2-.1.5-.1.7v.9c-.1.5.1.9.3 1.3.4.3.9.4 1.3.4l22.2 3.1c1.2.1 2.4.5 3.6.9.9.4 1.7.9 2.4 1.6.6.7 1.1 1.6 1.3 2.5.3 1.1.4 2.3.4 3.5v2.8c0 1.3-.2 2.6-.5 3.9-.3 1.1-.9 2.1-1.8 2.8-.9.8-2.1 1.4-3.3 1.7-1.6.4-3.3.6-4.9.6h-31.7v-9.3h28.5c.3 0 .6 0 .9-.1.3-.1.6-.2.8-.4.3-.5.5-1.1.4-1.6v-1c0-.5-.1-.9-.3-1.3-.3-.3-.8-.5-1.2-.5l-21.4-2.7c-1.3-.2-2.5-.5-3.7-.9-.9-.3-1.8-.9-2.5-1.6-.7-.7-1.2-1.5-1.4-2.4-.3-1.1-.5-2.2-.4-3.4V9.2c-.1-1.1.1-2.2.5-3.2s.9-2 1.6-2.8c1.4-1.4 3.7-2.1 6.9-2.1h31.7c.2 0 .4 0 .6.1.2.1.4.2.5.3.1.2.3.3.3.5.1.2.1.4 0 .6V10l-9.6 3.4ZM405.8 1.1v25.2c0 .3 0 .7.2.9.1.1.3.2.4.3.2.1.3.1.5 0h28v9.3h-36.6c-.4 0-.7 0-1.1-.1-.3-.1-.7-.3-.9-.6-.4-.6-.6-1.3-.6-2v-33h10.1ZM449.7 36.7H438v-.4l17.9-34.1c.2-.4.4-.7.7-.9.4-.2.8-.3 1.2-.3h12.3c.4 0 .8.1 1.2.3.3.2.6.6.8.9l17.7 34.1v.4h-30.5l-3-7.7v-1H471l1.6.1 1.3.1.1-.3c-.2-.4-.4-.7-.6-1.1-.2-.3-.5-.8-.7-1.3-.3-.5-.6-1.1-.9-1.8-.4-.7-.8-1.5-1.3-2.6l-5.6-11.3-.3-.3c-.1-.1-.3-.1-.4-.1h-.5c-.1 0-.3 0-.4.1l-.3.3-13.3 26.9ZM510.1 1.1c.6 0 1.1.1 1.6.3.4.3.7.6.9 1.1l13.5 25.6c.1.2.2.3.4.4.2.1.4.2.5.2h.8c.1 0 .2-.1.3-.2.1-.1.1-.2.2-.3V1.1h9.2v34.3c0 .9-.5 1.4-1.4 1.4h-14.5c-.5 0-1.1-.1-1.5-.3-.4-.3-.7-.7-1-1.1l-14-25.6c-.1-.2-.2-.3-.4-.4-.2-.1-.4-.2-.6-.2h-.7c-.1 0-.2.1-.3.2-.1.1-.1.2-.2.3v27.1h-9.2V2.5c0-1 .5-1.5 1.4-1.5h15v.1ZM542.3 2.5c0-1 .5-1.5 1.4-1.5h26.8c2.3 0 4.6.3 6.8 1.1 1.7.6 3.3 1.5 4.5 2.8 1.2 1.3 2 2.8 2.5 4.5.5 1.9.8 3.9.8 5.9v7.4c0 2-.2 4-.8 5.9-.5 1.7-1.3 3.2-2.5 4.5-1.2 1.3-2.8 2.3-4.5 2.8-2.2.7-4.5 1.1-6.8 1.1H556l-3.2-8.3h-.4v8.2h-10.1V2.5Zm10.1 25h17.1c.7.1 1.5 0 2.2-.2.7-.2 1.4-.6 1.9-1.1.8-.9 1.2-2.4 1.2-4.5v-6c0-2.2-.4-3.7-1.2-4.5-1.2-.9-2.6-1.3-4.1-1.2h-16.4c-.1 0-.2 0-.3.1-.1 0-.2.1-.2.2-.1.1-.2.3-.2.5v16.7ZM303.6 13.7l9.4-3.4V2.5c0-1-.5-1.5-1.4-1.5h-26.8c-2.3 0-4.6.3-6.8 1.1-1.7.5-3.2 1.5-4.4 2.8-1.2 1.3-2.1 2.8-2.6 4.5-.5 1.9-.8 3.9-.8 5.9v7.4c0 2 .2 3.9.8 5.9.5 1.7 1.4 3.3 2.6 4.5 1.2 1.3 2.7 2.2 4.4 2.8 2.2.7 4.5 1.1 6.8 1.1h26.9c.8 0 1.2-.5 1.2-1.4V15.8c-3.1-.2-6.2-.2-9.3-.2h-10v1l2.9 7.7h6.5v2.5c0 .4-.2.6-.5.6h-16.9c-.7.1-1.5 0-2.2-.2-.7-.2-1.4-.6-1.9-1.1-.8-.9-1.2-2.4-1.2-4.5v-6.3c0-.9.1-1.8.3-2.7.2-.7.5-1.3.9-1.8.5-.5 1-.8 1.6-.9.8-.2 1.6-.3 2.5-.3h17c.3 0 .4.2.4.5v3.4h.6v.2Z" />
            <path fill="#ED1C27"
                  d="M347.1 61.9c-.1-.1-.2-.3-.3-.4-.2-.2-.5-.4-.9-.4-4.9 0-7.9-1.8-11.2-3.8-3.1-1.9-6.4-3.8-11.2-4-.2-.1-.4-.1-.6-.1-.3 0-.6.1-.9.3-.1 0-.1.1-.2.1 0 0-.1 0-.1.1-.1.1-.1.1-.1.2-.2.2-.3.5-.3.7V97.4c0 .3.2.7.5.9.3.3.7.4 1.1.4.4 0 .8-.1 1.1-.4.3-.3.5-.6.5-1v-27c7.1-.1 11.7-.8 14.9-2 2.8-1.1 5.4-2.8 7.4-5.1.1-.1.2-.2.3-.4.1-.1.1-.3.1-.5 0-.1 0-.3-.1-.4Z" />
            <mask id="limg_logo_b" width="113" height="99" x="0" y="0" maskUnits="userSpaceOnUse"
                  style="mask-type:luminance">
                  <path fill="#fff"
                        d="M99.308 0H13.692C6.13 0 0 6.125 0 13.68v70.994c0 7.555 6.13 13.68 13.693 13.68h85.615c7.562 0 13.692-6.125 13.692-13.68V13.68C113 6.125 106.87 0 99.308 0Z" />
            </mask>
            <g fill="#CBFF99" mask="url(#limg_logo_b)">
                  <path
                        d="M38.112 77.057c-.21.21-.42.43-.62.662a.61.61 0 0 0-.211.556l1.052-.966a.199.199 0 0 0 0-.305c-.032-.126-.148-.042-.221.053Z" />
                  <path
                        d="M111.391 10.307a25.088 25.088 0 0 0-2.103 2.532 114.578 114.578 0 0 1-3.008 3.583 98.834 98.834 0 0 1-3.733 4.056c-1.189 1.24-2.377 2.48-3.681 3.593-.455.463-.864.97-1.22 1.513-.978 1.187-2.009 2.354-2.945 3.583-.778 1.05-1.735 1.912-2.524 2.942a69.753 69.753 0 0 1-3.228 3.761c-.841.893-1.714 1.744-2.577 2.627l-.63.651a.845.845 0 0 1-.2.19.569.569 0 0 1-.537 0c-.115-.085.063-.232.074-.358 0-.452.378-.704.673-.987.294-.284.42-.41.063-.82a2.1 2.1 0 0 1-.61-1.05c0-.148-.084-.305-.284-.253a16.72 16.72 0 0 0-2.682.494h-.105c-.116 0-.263.063-.273.2-.01.136.115.168.2.21a.896.896 0 0 1 .389.578c.19.716.19 1.469 0 2.185a.546.546 0 0 1-.79.452c-.294-.084-.483 0-.567.284-.084.283-.19.43-.473.367a.61.61 0 0 1-.474-.567c0-.21.127-.536-.168-.557-.294-.021-.168.378-.178.599-.021.35-.021.7 0 1.05 0 .757-.169.999-.915.978-.295 0-.348.084-.327.325a6.46 6.46 0 0 1-.2 1.492c0 .116-.094.252 0 .337.095.084.232 0 .337-.063a9.883 9.883 0 0 0 2.66-2.102c.485-.504 1.053-.945 1.494-1.481a.315.315 0 0 1 .484-.063c.21.157.158.336 0 .514a11.02 11.02 0 0 1-1.693 1.913 32.965 32.965 0 0 0-2.398 2.3 6.834 6.834 0 0 1-1.556 1.346 1.97 1.97 0 0 0-.368.294 55.126 55.126 0 0 1-4.102 3.73c-.22.21-.505.367-.747.578-.241.21-.42.23-.61 0-.189-.231 0-.452.137-.62.473-.39.936-.788 1.42-1.145.484-.358.736-.725 1.136-1.051.168-.126.105-.21 0-.284a1.874 1.874 0 0 1-.6-.378c-.115-.126-.168 0-.242.063-.41.578-.41.578-1.051.357-.179-.063-.274-.105-.316.158a.693.693 0 0 1-.915.546 2.02 2.02 0 0 1-1.65-1.05 5.51 5.51 0 0 0 0 1.208c0 .662-.106.767-.748.63a.231.231 0 0 0-.22 0 1.669 1.669 0 0 0-.19 1.187.787.787 0 0 1-.378 1.209.368.368 0 0 1-.431-.116c-.19-.252-.337-.168-.505 0-.26.266-.587.458-.947.557a.82.82 0 0 0-.368.22c-.263.305-.536.452-.883.064.105.403.324.768.63 1.05a.905.905 0 0 1-.083 1.555 5.69 5.69 0 0 0-1.052.799c-.073.063-.147.147-.105.242.042.094.158 0 .242 0 .084 0 .231-.085.305 0 .326.367.526 0 .715-.148a7.03 7.03 0 0 0 1.157-1.985c.168-.347.389-.63.841-.347.126.084.22 0 .305-.105.084-.105.463-.4.705-.578.242-.179.357-.116.389.178a1.586 1.586 0 0 1-1.126 1.587.42.42 0 0 0-.252.168 12.983 12.983 0 0 1-2.208 2.102c-.989.893-1.883 1.88-2.798 2.857a24.402 24.402 0 0 0-1.882 2.018c-.652.872-1.483 1.586-2.188 2.406-.263.294-.452.063-.652 0s0-.284 0-.4c.254-.637.61-1.23 1.052-1.754.137-.137.242-.347.41-.43.505-.243.526-.768.747-1.188.073-.137 0-.242-.105-.357a.588.588 0 0 1 0-.673.452.452 0 0 1 .536-.147.536.536 0 0 1 .368.599c0 .084 0 .231.084.273.084.042.19-.073.263-.136.203-.187.33-.441.358-.715a.704.704 0 0 1 .799-.651.6.6 0 0 0 .452-.21c.442-.452.894-.904 1.325-1.356.074-.073.253-.168.116-.284-.137-.115-.19.084-.252.158-.064.074-.337.567-.758.357-.147-.073-.147.074-.157.19a1.051 1.051 0 0 1-.863.693c-.305 0-.389-.22-.494-.43-.253-.495-.515-.978-.757-1.482-.105-.21-.19-.2-.337 0-.356.371-.772.68-1.23.914-.379.178-.494.556-.652.872a2.86 2.86 0 0 1-1.262 1.05 4.862 4.862 0 0 1-1.967.379l-.894.147a1.558 1.558 0 0 0-1.272.903 10.807 10.807 0 0 1-3.734 3.688 1.168 1.168 0 0 1-1.535 0 .99.99 0 0 0-.526-.147 8.416 8.416 0 0 0-1.051.242c.183.09.359.196.525.315.358.242.4.473.137.83-.124.187-.19.406-.19.63 0 1.324-1.135 1.713-2.218 1.22-.347-.158-.579-.19-.8.146-.22.337-.4.116-.599 0-.2-.115-.273-.126-.442 0-.237.17-.518.268-.81.284-.168 0-.262-.105-.336-.231a2.397 2.397 0 0 0-.452-.662 1.05 1.05 0 0 1-.526 1.145.83.83 0 0 0-.22.452 4.906 4.906 0 0 1-1.336 2.385 2.24 2.24 0 0 1-.926.515c-.36.161-.712.344-1.051.546-.158 0-.18.168-.21.305-.032.136-.159.462-.464.43-.305-.03-.21.085-.252.2a2.216 2.216 0 0 1-1.43 1.524c-.2.063-.253.262-.316.43a2.102 2.102 0 0 1-1.22 1.188c-.294.115-.336.389-.473.599-.273.451-.463.525-.936.273-.158-.084-.263-.105-.347.073-.084.179-.284.295-.505.126-.22-.168-.242-.073-.22.148 0 .504-.137.672-.674.672-.336 0-.683 0-.788.42-.148.683-.526.778-1.052.2a.4.4 0 0 0-.126.578c.056.135.099.276.126.42a.368.368 0 0 1-.084.4c-.126.136-.263 0-.41 0-.148 0-.263-.284-.431 0-.169.283-.337.42-.106.693a.526.526 0 0 1 0 .777.43.43 0 0 1-.788-.084c-.095-.189-.127-.399-.21-.599a.683.683 0 0 0-.81-.462c-.242 0-.495.074-.737.126-.241.053-.662.074-.704.515 0 .168-.221.19-.358.22a.335.335 0 0 0-.242.431c.087.276.157.557.21.84.074.348-.105.516-.441.4a.368.368 0 0 0-.4 0 .663.663 0 0 1-.957 0 .284.284 0 0 0-.252-.094c-.095.073 0 .147 0 .22.137.515 0 .788-.494.883a1.368 1.368 0 0 0-1.052.935 1.05 1.05 0 0 1-.652.64c-.294.095-.337.263-.337.537 0 .714-.115.903-.799 1.113a5.691 5.691 0 0 1-.568.158c-.136 0-.273.084-.378 0a.462.462 0 0 1 0-.41 3.023 3.023 0 0 0 0-1.702.462.462 0 0 0-.705-.284c-.357.19-.705.41-1.052.62-.168.095-.157.252-.157.41.043.565.123 1.127.242 1.681 0 .242 0 .358-.253.41a1.695 1.695 0 0 0-1.199.883.483.483 0 0 1-.326.22 1.052 1.052 0 0 0-.62.452.694.694 0 0 1-.2.19 18.099 18.099 0 0 0-4.049 2.857 214.028 214.028 0 0 1-3.807 3.75c-.526.516-1.104.978-1.661 1.461a1.526 1.526 0 0 1-.737.368H113V8.626a15.022 15.022 0 0 1-1.609 1.681ZM23.799 87.742a20.774 20.774 0 0 1-3.555 1.43c-1.42.493-2.828 1.05-4.29 1.386-.8.21-1.61.347-2.42.515l-.062-.116c.484-.21.736-.714 1.24-.914.231-.108.42-.289.537-.515.16-.244.41-.417.694-.483.82-.22 1.62-.494 2.44-.694.604-.18 1.192-.412 1.756-.693 0 0 .084 0 .105-.063.295-.567.884-.567 1.378-.683a4.21 4.21 0 0 1 2.103-.126c.242.063.421.147.463.41.042.263-.158.41-.389.546Zm12.914-8.405a2.325 2.325 0 0 0-.652.357c-.946.778-1.735 1.744-2.703 2.49a26.426 26.426 0 0 1-3.785 2.669c-.39.219-.745.495-1.052.82a10.79 10.79 0 0 1-3.565 2.185.473.473 0 0 1-.558-.158.515.515 0 0 1 .085-.683 35.746 35.746 0 0 1 3.165-3.162.558.558 0 0 1 .873.325c.116.337.21.263.42.105.251-.235.449-.522.579-.84a3.015 3.015 0 0 1 2.272-1.692c.084 0 .2 0 .23-.052.286-.39.618-.743.99-1.05.168-.138.283-.285.504-.232a.79.79 0 0 0 .842-.273c.294-.305.62-.589.936-.862.315-.273.494-.4.483-.767a.22.22 0 0 1 .084-.168 1.407 1.407 0 0 0 .6-.956c.147-.494.61-.63.925-.925a1.284 1.284 0 0 1 1.21-.241 1.052 1.052 0 0 0 1.115-.379.305.305 0 0 1 .525-.063c.284.284.453.21.568-.136a.347.347 0 0 1 .253-.231c.36-.1.711-.226 1.051-.379.274-.126.558.085.663.442a1.049 1.049 0 0 1-.39 1.05c-.388.263-.788.494-1.272.221a.295.295 0 0 0-.231 0c-.516.202-1.042.374-1.578.515a.357.357 0 0 0-.231.21 3.996 3.996 0 0 1-2.356 1.902v-.042Zm17.983-11.243c-.357 1.261-1.42 1.902-2.334 2.68a37.552 37.552 0 0 1-3.618 2.574 9.388 9.388 0 0 0-2.103 1.965 11.641 11.641 0 0 1-4.091 2.92c-.74.4-1.523.715-2.335.936a1.463 1.463 0 0 1-1.24-.536.517.517 0 0 1 .325-.757h.085c.504-.252.515-.252.862.252.115.169.242.095.378.064a4.68 4.68 0 0 0 2.85-1.797.83.83 0 0 1 .726-.4.349.349 0 0 0 .316-.136c.243-.279.515-.532.81-.756.262-.242.43-.61.914-.589.2 0 .42-.336.61-.536a17.002 17.002 0 0 1 3.155-2.364 36.067 36.067 0 0 0 3.67-2.89l1.483-1.281c-.105.357-.4.462-.462.651Z" />
                  <path
                        d="M.126 71.793c.456.162.833.493 1.052.924 0 .106.116.253.263.169.147-.084 0-.21 0-.305-.263-.473-.41-1.05-1.052-1.24-.074 0-.137-.126-.168-.21a1.69 1.69 0 0 1 .915-1.723c.22 0 .368.094.547.273.052-.273.084-.494.147-.715a.64.64 0 0 1 .768-.514c.331.008.662.043.988.105.502.17 1.015.303 1.536.399.767.116 1.114.798 1.598 1.292.074.063.105.179.252.2-.094-.389-.283-.767.085-1.114.105-.094 0-.241-.095-.357a5.892 5.892 0 0 1-.568-1.05.367.367 0 0 0-.326-.253 1.052 1.052 0 0 1-.852-1.25 3.15 3.15 0 0 0-.158-2.165.63.63 0 0 1 .169-.83.747.747 0 0 1 .925.063 46.994 46.994 0 0 1 2.009 1.797c.2.19.326.441.526.652a6.542 6.542 0 0 0-.747-2.575.368.368 0 0 0-.21-.168 2.44 2.44 0 0 1-1.81-2.794 2.1 2.1 0 0 1 .506-1.324c.126-.147.241-.242.441-.19a6.501 6.501 0 0 1 3.534 2.039c.285.34.59.663.915.966-.242-.756-.242-1.555-.495-2.3a10.15 10.15 0 0 1-.599-3.962 1.69 1.69 0 0 1 1.23-1.513.327.327 0 0 0 .21-.157 11.252 11.252 0 0 1 2.672-2.333c.305-.22.726 0 1.052.105a1.378 1.378 0 0 1 .946 1.156 2.528 2.528 0 0 0 .936 1.807c.063 0 .126.126.19.126.394.048.793.048 1.188 0 .22 0 .305-.115.22-.378a2.636 2.636 0 0 1-.147-1.586c0-.179.074-.4.305-.41a.621.621 0 0 1 .62.273 9.05 9.05 0 0 0 2.22 2.301c.086.067.181.12.284.158-1.125-1.209-1.504-2.848-2.556-4.035-.357-.4-.683-.82-1.051-1.219a2.878 2.878 0 0 1-.495-1.44 6.682 6.682 0 0 1-.094-1.302c0-.546.336-.788.851-.557.516.231.82.368 1.22.568.755.229 1.525.408 2.304.535.578.2.704.526.326.998-.19.232-.4.463-.6.683-.2.221-.105.221.074.316a2.326 2.326 0 0 0 1.62 0c.46-.069.903-.225 1.303-.463a.81.81 0 0 1 .79 0c.115 0 .241.137.357 0 .284-.325.473-.073.63.126.158.2.41.557.61.83.074.116.158.253.306.179.147-.074.105-.22.073-.347a14.579 14.579 0 0 1-.547-2.196c0-.472-.136-.977.295-1.355.105-.893.946-.84 1.504-1.05a4.873 4.873 0 0 1 3.491 0c.673.126 1.332.32 1.967.577a2.766 2.766 0 0 1 1.42.998c.084.148.21.2.326.105.115-.094 0-.189-.116-.241a.483.483 0 0 1-.105-.704 7.01 7.01 0 0 1 1.935-2.102 4.203 4.203 0 0 0 1.546-2.1.662.662 0 0 0 0-.38 4.569 4.569 0 0 0-.758-1.733 1.564 1.564 0 0 1 .18-1.912c.364-.305.686-.659.956-1.05a.399.399 0 0 1 .59-.137l.662.357a.368.368 0 0 1 .21.273c0 .662.557.81 1.052.988.494.178.894.178 1.356.367-.231-.367-.43-.767-.694-1.103-.147-.178-.441-.157-.673-.189a.483.483 0 0 1-.42-.61.473.473 0 0 1 .567-.472c.497.111 1.007.15 1.515.116a1.22 1.22 0 0 1 1.051.514c.15.186.319.355.505.505.4.399.536.346.894-.074a5.5 5.5 0 0 1 2.514-1.733c1.756-.505 3.512-1.051 5.258-1.619a35.12 35.12 0 0 0 3.512-1.428 7.094 7.094 0 0 1 2.25-.568 8.753 8.753 0 0 0 2.704-.966 30.115 30.115 0 0 0 2.723-1.766c.695-.399 1.432-.72 2.198-.956.772-.367 1.51-.8 2.209-1.292a6.57 6.57 0 0 0 2.534-2.438c.431-.786.902-1.55 1.41-2.29a.945.945 0 0 0 .157-.483c.095-1.055.335-2.09.715-3.079.35-.943.808-1.842 1.367-2.68.59-.892 1.22-1.754 1.81-2.647a4.385 4.385 0 0 1 1.577-1.366 3.467 3.467 0 0 0 1.451-1.996c.452-1.135.82-2.311 1.22-3.467.126-.368.231-.736.337-1.05a.578.578 0 0 1 .588-.474c.337 0 .653-.157.989 0 .126 0 .19-.063.22-.178.032-.116.096-.379.138-.578.042-.2.115-.483.41-.589.073 0 .136-.115.178-.189.39-.66.9-1.24 1.504-1.712.305-.231.516-.568.936-.63a2.305 2.305 0 0 1 1.651.682c.12.34.12.711 0 1.05a1.47 1.47 0 0 1-.094.18c-.284.556-.62 1.05-1.336 1.05-.336 0-.494.21-.4.568.041.247 0 .502-.115.725-.168.43-.442.535-.83.262a4.268 4.268 0 0 1-1.252-1.05 1.806 1.806 0 0 1-.505 1.103c-.095.084 0 .2 0 .304.098.79-.064 1.591-.463 2.28-.179.263 0 .547-.137.81a8.195 8.195 0 0 0-.389 1.491c0 .242-.168.379-.452.253-.284-.127-.536 0-.494.388.04.236.158.45.336.61.421.42.368.83-.168 1.135l-.83.451c-.148.074-.243.2-.169.357.263.505 0 .852-.316 1.209-.473.599-.473.683.316.809a3.06 3.06 0 0 1 1.872 1.113c.557.62.463 1.114-.253 1.514a1.432 1.432 0 0 1-1.588-.18c-.23-.146-.305-.083-.452.127a2.803 2.803 0 0 0-.378 1.933c.09.44.266.857.515 1.23.145.282.306.556.484.819a.526.526 0 0 1 0 .746.79.79 0 0 1-.884-.095c-.168-.178-.357-.357-.515-.546-.158-.189-.326-.168-.41.116-.138.454-.247.918-.326 1.387 0 .325-.21.472-.547.399a.916.916 0 0 0-1.052.441 5.036 5.036 0 0 1-.62.715 4.558 4.558 0 0 0-1.052 2.794A9.837 9.837 0 0 1 75.53 31.7a2.26 2.26 0 0 1-1.304 1.05l-1.052.368a.261.261 0 0 0-.168.148 1.711 1.711 0 0 0 .473 1.86c.137-.137.105-.316.137-.484.073-.336.263-.4.557-.284.143.03.278.087.4.168.336.368.83.326 1.22.536a.19.19 0 0 0 .22 0 2.862 2.862 0 0 1 2.945-.452c.98.186 1.995.038 2.882-.42.473-.157.904-.42 1.44-.567a.883.883 0 0 1-.462-.694 1.05 1.05 0 0 1 .168-.788c.098-.17.186-.345.263-.525.2-.357.294-.368.6-.095a.379.379 0 0 0 .21.126c-.085-.147-.19-.294-.274-.44a.598.598 0 0 1 .168-.83c.484-.453.568-.862.253-1.283a.453.453 0 0 1 .105-.735.21.21 0 0 0 .084-.084 15.837 15.837 0 0 0 1.052-3.814c.073-.967.315-1.923.305-2.91a.252.252 0 0 1 .168-.284.284.284 0 0 1 .347.136c.158.242.273.19.379 0 .105-.189.294-.62.43-.935.138-.315.19-.23.369-.126.118.06.241.11.368.147.526.168.662.095.8-.41.033-.128.082-.251.146-.367.221-.452.316-.473.695-.147a.315.315 0 0 0 .42 0c.198-.157.428-.268.673-.326a1.157 1.157 0 0 0 1.052-.946c.045-.123.102-.243.168-.357.305-.662.41-.683 1.052-.126 0-.886-.059-1.77-.179-2.648-.084-.262-.273-.61 0-.809a1.284 1.284 0 0 1 1.241-.283c.707.32 1.306.839 1.725 1.491.348.5.738.967 1.167 1.398.075.09.18.15.294.168a8.864 8.864 0 0 0-.22-1.124c-.263-.799-.368-1.629-.6-2.427a2.226 2.226 0 0 1 .947-2.102c.157-.094.242 0 .347.063a2.913 2.913 0 0 1 1.609 2.47c.006.197.056.391.147.567.137.231.305.494.642.21.336-.284.347 0 .483.116a10.954 10.954 0 0 0 2.524 1.964c.41.253.41.263.452-.241.042-.505.085-.925.116-1.377a.77.77 0 0 1 .337-.683.855.855 0 0 0 .41-.682c.047-.34.15-.67.305-.978a.383.383 0 0 1 .206-.23.376.376 0 0 1 .309 0 1.403 1.403 0 0 0 1.462-.484 7.204 7.204 0 0 0 .883-2.238c.126-.326.274-.651.379-1.05.105-.4.263-.274.473-.158.21.115.4.21.589.325a.506.506 0 0 0 .684-.178 1.36 1.36 0 0 0 0-1.471c-.211-.315-.432-.63-.621-.967-.189-.336-.189-.683.295-.935a.555.555 0 0 0 .199-.137c.263-.388.568-.357.905-.094l1.451 2.101c.095.126.2.179.337.095a.261.261 0 0 0 .07-.069.247.247 0 0 0-.007-.278c-.137-.252-.253-.525-.389-.777-.305-.6-.694-1.051-1.462-1.051a.526.526 0 0 1 .126-.704c.397-.39.855-.713 1.357-.956a.587.587 0 0 1 .694 0c.15.13.316.239.494.326V0H0v71.74l.126.053Zm89.927-58.439c.095.483.158.82.22 1.156.064.336-.23.62-.44.872-.211.252-.4 0-.58-.074-.399-.2-.788-.42-1.188-.63-.21-.105-.357-.105-.357.19v.472a.525.525 0 0 1-.831.41.61.61 0 0 1-.158-.116c-.578-.515-.578-.515-1.21-.136-.136.084-.094.2-.125.304-.137.378-.295.42-.663.263a3.322 3.322 0 0 1-1.588-1.734.599.599 0 0 1 0-.61c.235-.494.439-1.003.61-1.523.074-.189.168-.357.39-.399.22-.042.43-.294.336-.62a2.782 2.782 0 0 1 .073-1.975.693.693 0 0 1 .61-.42c.253 0 .379.115.505.304a8.778 8.778 0 0 1 1.378 2.921.526.526 0 0 0 .63.473 1.21 1.21 0 0 0 1.052-.4.305.305 0 0 1 .537 0c.367.352.642.789.799 1.272ZM2.598 98.312a.609.609 0 0 1 0-.599 4.35 4.35 0 0 1 1.314-1.607 36.444 36.444 0 0 0 3.27-3.226c.21-.203.436-.389.674-.557a.305.305 0 0 1 .431 0c.179.19.305.074.442 0l.515-.483c.179-.19.431-.368.074-.62.157-.546-.21-.862-.516-1.219a.242.242 0 0 1 0-.378c.347-.168.358-.505.495-.788a1.167 1.167 0 0 1-.863-1.219c0-.147 0-.305.21-.357.211-.053.253.094.38.157.125.064.136.39.336.18.2-.211.441-.4.21-.715a1.188 1.188 0 0 0-.536-.452c-.463-.179-.905-.378-1.357-.568a3.618 3.618 0 0 1-1.272-.798c-.127.231 0 .441 0 .64a.493.493 0 0 1-.495.558c-.284.126-.715-.179-.915.262-.2.442-.452.526-.452.904v.073c-.484.347-.389.967-.673 1.408a2.007 2.007 0 0 1-.357.557c-.19.147-.158.305 0 .452.157.147.231.22.357.315a.524.524 0 0 1 .2.725c0 .084-.158.252 0 .273.936 0 1.115.852 1.451 1.482.068.132.114.274.137.42a.882.882 0 0 1-.841 1.208c-.253 0-.4-.189-.558-.336a.442.442 0 0 0-.652 0 4.596 4.596 0 0 1-.925.62.2.2 0 0 0-.137.21.903.903 0 0 1-.42.725c-.253.22-.505.431-.747.662a2.504 2.504 0 0 1-1.357.662v1.608h2.65l-.073-.179Z" />
            </g>
      </g>
      <defs>
            <clipPath id="limg_logo">
                  <path fill="#fff" d="M0 0h585v98.7H0z" />
            </clipPath>
      </defs>
</svg>