<svg xmlns="http://www.w3.org/2000/svg" fill="none" viewBox="0 0 26 24">
    <path fill="#B60E11"
          d="M13.4855 21.8013c-5.63438 0-10.23941-4.5983-10.23941-10.2244 0-5.62618 4.60503-10.22448 10.23941-10.22448 5.6344 0 10.2394 4.5983 10.2394 10.22448 0 5.6261-4.605 10.2244-10.2394 10.2244Zm0-19.36693c-5.03843 0-9.15587 4.11143-9.15587 9.14253s4.11744 9.1425 9.15587 9.1425c5.0384 0 9.1559-4.1114 9.1559-9.1425s-4.1175-9.14253-9.1559-9.14253Z" />
    <path fill="#B60E11"
          d="M13.4854 18.4474c-3.79235 0-6.88042-3.0836-6.88042-6.8704 0-3.78689 3.08807-6.87046 6.88042-6.87046 3.7924 0 6.8805 3.08357 6.8805 6.87046 0 3.7868-3.0881 6.8704-6.8805 6.8704Zm0-12.38841c-3.0339 0-5.526 2.48849-5.526 5.51801 0 3.0294 2.4921 5.5179 5.526 5.5179 3.0339 0 5.5261-2.4885 5.5261-5.5179 0-3.02952-2.4922-5.51801-5.5261-5.51801Z" />
    <path fill="#B60E11"
          d="M13.4855 8.81793c-.3251 0-.5418-.21639-.5418-.54098V.540977C12.9437.216391 13.1604 0 13.4855 0c.325 0 .5418.216391.5418.540977V8.27695c0 .32459-.2709.54098-.5418.54098Zm0 14.55227c-.3251 0-.5418-.2164-.5418-.541v-7.7359c0-.3246.2167-.541.5418-.541.325 0 .5418.2164.5418.541v7.7359c0 .2705-.2709.541-.5418.541ZM9.80147 12.1179h-8.3974c-.32506 0-.541765-.2164-.541765-.541s.216705-.541.541765-.541h8.3974c.32503 0 .54173.2164.54173.541 0 .2705-.2167.541-.54173.541Zm15.65703 0h-8.3974c-.325 0-.5417-.2164-.5417-.541s.2167-.541.5417-.541h8.3974c.3251 0 .5418.2164.5418.541 0 .2705-.2167.541-.5418.541Zm-11.973.6492c-.6501 0-1.1919-.541-1.1919-1.1902 0-.6492.5418-1.1901 1.1919-1.1901s1.1919.5409 1.1919 1.1901c0 .6492-.5418 1.1902-1.1919 1.1902Z" />
</svg>