<svg xmlns="http://www.w3.org/2000/svg" width="144" height="224" fill="none">
    <g fill="#885FFF" clip-path="url(#a)">
        <path
              d="M72 144.094c-39.927 0-72-32.094-72-72.047C0 32.094 32.073 0 72 0s72 32.094 72 72.047c0 39.953-32.073 72.047-72 72.047Zm0-13.1c32.727 0 58.909-26.199 58.909-58.947 0-32.749-26.182-58.948-58.909-58.948-32.727 0-58.91 26.2-58.91 58.948 0 32.748 26.183 58.947 58.91 58.947Zm0 74.667 3.273-13.755c0-.655.654-1.31.654-1.964l12.437-19.65H54.982l11.127 19.65c0 .654.655.654.655 1.309l3.927 14.41c0 .655 0 .655.654 1.31 0-.655.655-.655.655-1.31Zm12.436 3.275c-5.236 20.304-20.29 20.959-26.182.655l-3.927-13.755-13.09-22.924c-4.583-7.204 0-15.719 9.163-15.719h43.2c8.509 0 13.091 8.515 8.509 15.719l-14.4 22.924-3.273 13.1Z" />
        <path
              d="M72 117.895a6.548 6.548 0 0 0 6.545-6.55c0-3.617-2.93-6.55-6.545-6.55a6.548 6.548 0 0 0-6.546 6.55c0 3.617 2.931 6.55 6.546 6.55ZM98.182 104.795a6.547 6.547 0 0 0 6.545-6.55c0-3.617-2.93-6.55-6.545-6.55a6.548 6.548 0 0 0-6.546 6.55c0 3.618 2.93 6.55 6.546 6.55ZM104.727 58.947a6.548 6.548 0 0 0 6.546-6.55 6.548 6.548 0 0 0-6.546-6.549 6.547 6.547 0 0 0-6.545 6.55c0 3.617 2.93 6.55 6.545 6.55ZM91.636 78.597a6.548 6.548 0 0 0 6.546-6.55c0-3.617-2.93-6.55-6.546-6.55a6.548 6.548 0 0 0-6.545 6.55c0 3.617 2.93 6.55 6.545 6.55ZM78.546 98.246a6.548 6.548 0 0 0 6.545-6.55c0-3.617-2.93-6.55-6.545-6.55A6.548 6.548 0 0 0 72 91.696c0 3.617 2.93 6.55 6.546 6.55ZM111.273 85.146a6.547 6.547 0 0 0 6.545-6.55c0-3.617-2.93-6.55-6.545-6.55a6.548 6.548 0 0 0-6.546 6.55 6.548 6.548 0 0 0 6.546 6.55Z" />
    </g>
    <defs>
        <clipPath id="a">
            <path fill="#fff" d="M0 0h144v224H0z" />
        </clipPath>
    </defs>
</svg>