<svg xmlns="http://www.w3.org/2000/svg" fill="none" viewBox="0 0 20 11">
    <path fill="#B60E11"
          d="M1.24906 10.5382c-.316104-.3079-.474158-.69978-.474158-1.17561 0-.47582.158054-.86768.474158-1.17557L9.18051.461831c.17243-.167939.35922-.286615.56038-.35603C9.94205.0363863 10.1576.00111959 10.3875 0c.2299 0 .4529.0419844.669.125954.2161.083969.3954.195928.5379.335877l7.9315 7.725189c.3161.30789.4741.69975.4741 1.17557 0 .47583-.158.86771-.4741 1.17561-.3161.3079-.7184.4618-1.207.4618-.4885 0-.8908-.1539-1.2069-.4618l-6.7245-6.54965-6.72452 6.54965c-.3161.3079-.71842.4618-1.20696.4618-.48853 0-.89085-.1539-1.20696-.4618Z" />
</svg>